<?xml version="1.0" encoding="UTF-8" standalone="no"?>
<!DOCTYPE svg PUBLIC "-//W3C//DTD SVG 1.1//EN" "http://www.w3.org/Graphics/SVG/1.1/DTD/svg11.dtd">
<svg version="1.1" xmlns="http://www.w3.org/2000/svg" xmlns:xlink="http://www.w3.org/1999/xlink" preserveAspectRatio="xMidYMid meet" viewBox="0 0 640 640" width="640" height="640"><defs><path d="M251.27 70.4C248.94 71.67 243.4 74.81 239 77.36C234.6 79.91 229.59 82.86 227.78 83.87C224.78 85.52 208.93 94.45 154.75 125.16C144.4 131.04 134.67 136.61 133.12 137.49C131.56 138.36 122.03 143.72 111.94 149.47C101.84 155.23 91.97 160.81 89.94 161.91C83.95 165.12 75.04 174.42 71.67 181.08C65.44 193.29 65.88 185.57 65.88 319.47C65.88 437.48 65.92 444.88 68.53 451.59C72.96 462.99 78.56 470.25 87.52 476.24C90.53 478.27 93.18 480 93.41 480C93.65 480 98.51 482.63 104.29 485.95C110.09 489.25 114.99 491.99 115.17 491.99C115.35 491.99 118.24 493.68 121.54 495.63C124.82 497.6 129.4 500.28 131.72 501.58C137.09 504.56 153.92 514.03 157.64 516.17C159.19 517.07 164.73 520.2 169.91 523.14C175.08 526.07 180.51 529.19 182.06 530.1C185.39 532.04 208.49 545.07 214.58 548.46C216.91 549.76 221.47 552.44 224.76 554.41C228.05 556.36 230.95 557.93 231.13 557.93C231.3 557.93 234.94 560.01 239.22 562.49C243.53 564.98 248.94 568.06 251.27 569.34C253.59 570.63 264.66 576.77 275.8 583.14C300.05 597.01 302.07 598 311.55 600.15C318.24 601.68 320.41 601.78 327.18 600.62C332.47 599.7 342.03 596.53 344.08 595.03C345.07 594.29 353.69 589.35 362.25 584.65C365.04 583.11 376.1 576.86 386.78 570.72C397.45 564.6 408.06 558.55 410.39 557.26C414.12 555.18 447.72 536.19 455.17 531.93C460.49 528.89 476.79 519.66 480.98 517.32C483.29 516.04 487.27 513.73 489.89 512.2C495.47 508.92 499.69 506.59 505.52 503.41C507.84 502.13 513.37 499.01 517.79 496.44C522.19 493.89 528.12 490.46 530.97 488.91C533.83 487.38 538.31 484.8 541.04 483.09C543.76 481.38 546.25 480.02 546.48 480.02C548.22 480.02 557.86 472.71 561.99 468.26C567.93 461.87 571.69 454.22 573.67 444.87C575.84 434.7 575.95 205.05 573.8 194.77C571.96 186.07 567.83 177.85 562.33 171.84C556.48 165.41 553.38 163.37 527.15 148.79C524.82 147.49 517.87 143.57 511.65 140C502.19 134.58 456.07 108.36 446.61 103.04C445.05 102.17 438.71 98.61 432.5 95.05C426.28 91.48 419.31 87.44 416.98 86.15C414.66 84.87 402.56 78.14 390.14 71.09C377.71 64.04 361.1 54.67 353.23 50.21C335.6 40.24 330.38 38.57 317.46 39.25C305.86 39.87 303.91 40.74 276.73 56.14C265.08 62.73 253.6 69.13 251.27 70.4Z" id="a3euhmAhrq"></path><path d="M251.27 70.4C248.94 71.67 243.4 74.81 239 77.36C234.6 79.91 229.59 82.86 227.78 83.87C224.78 85.52 208.93 94.45 154.75 125.16C144.4 131.04 134.67 136.61 133.12 137.49C131.56 138.36 122.03 143.72 111.94 149.47C101.84 155.23 91.97 160.81 89.94 161.91C83.95 165.12 75.04 174.42 71.67 181.08C65.44 193.29 65.88 185.57 65.88 319.47C65.88 437.48 65.92 444.88 68.53 451.59C72.96 462.99 78.56 470.25 87.52 476.24C90.53 478.27 93.18 480 93.41 480C93.65 480 98.51 482.63 104.29 485.95C110.09 489.25 114.99 491.99 115.17 491.99C115.35 491.99 118.24 493.68 121.54 495.63C124.82 497.6 129.4 500.28 131.72 501.58C137.09 504.56 153.92 514.03 157.64 516.17C159.19 517.07 164.73 520.2 169.91 523.14C175.08 526.07 180.51 529.19 182.06 530.1C185.39 532.04 208.49 545.07 214.58 548.46C216.91 549.76 221.47 552.44 224.76 554.41C228.05 556.36 230.95 557.93 231.13 557.93C231.3 557.93 234.94 560.01 239.22 562.49C243.53 564.98 248.94 568.06 251.27 569.34C253.59 570.63 264.66 576.77 275.8 583.14C300.05 597.01 302.07 598 311.55 600.15C318.24 601.68 320.41 601.78 327.18 600.62C332.47 599.7 342.03 596.53 344.08 595.03C345.07 594.29 353.69 589.35 362.25 584.65C365.04 583.11 376.1 576.86 386.78 570.72C397.45 564.6 408.06 558.55 410.39 557.26C414.12 555.18 447.72 536.19 455.17 531.93C460.49 528.89 476.79 519.66 480.98 517.32C483.29 516.04 487.27 513.73 489.89 512.2C495.47 508.92 499.69 506.59 505.52 503.41C507.84 502.13 513.37 499.01 517.79 496.44C522.19 493.89 528.12 490.46 530.97 488.91C533.83 487.38 538.31 484.8 541.04 483.09C543.76 481.38 546.25 480.02 546.48 480.02C548.22 480.02 557.86 472.71 561.99 468.26C567.93 461.87 571.69 454.22 573.67 444.87C575.84 434.7 575.95 205.05 573.8 194.77C571.96 186.07 567.83 177.85 562.33 171.84C556.48 165.41 553.38 163.37 527.15 148.79C524.82 147.49 517.87 143.57 511.65 140C502.19 134.58 456.07 108.36 446.61 103.04C445.05 102.17 438.71 98.61 432.5 95.05C426.28 91.48 419.31 87.44 416.98 86.15C414.66 84.87 402.56 78.14 390.14 71.09C377.71 64.04 361.1 54.67 353.23 50.21C335.6 40.24 330.38 38.57 317.46 39.25C305.86 39.87 303.91 40.74 276.73 56.14C265.08 62.73 253.6 69.13 251.27 70.4Z" id="b2Z09VN1g"></path><path d="M251.28 70.78C248.95 72.05 243.41 75.18 239.02 77.73C234.6 80.29 229.59 83.23 227.79 84.24C224.79 85.91 208.93 94.81 154.77 125.55C144.41 131.42 134.67 137 133.12 137.87C131.58 138.73 122.04 144.09 111.94 149.84C101.85 155.59 91.98 161.2 89.96 162.28C83.95 165.5 75.05 174.81 71.67 181.45C65.44 193.68 65.88 185.96 65.88 319.85C65.88 437.86 65.94 445.27 68.55 451.98C72.96 463.36 78.56 470.63 87.53 476.63C90.54 478.64 93.19 480.39 93.43 480.39C93.66 480.39 98.52 482.99 104.31 486.32C110.09 489.64 115.01 492.37 115.19 492.37C115.35 492.37 118.25 494.05 121.54 496.02C124.83 497.98 129.4 500.65 131.73 501.95C137.1 504.94 153.92 514.4 157.65 516.55C159.21 517.46 164.74 520.57 169.92 523.51C175.1 526.45 180.52 529.58 182.08 530.48C185.41 532.41 208.5 545.44 214.59 548.84C216.92 550.14 221.49 552.82 224.78 554.77C228.07 556.74 230.97 558.31 231.13 558.31C231.31 558.31 234.95 560.39 239.24 562.88C243.53 565.35 248.95 568.44 251.27 569.72C253.6 571.01 264.68 577.16 275.8 583.52C300.05 597.38 302.09 598.36 311.57 600.52C318.26 602.05 320.42 602.15 327.19 600.99C332.48 600.07 342.04 596.92 344.08 595.4C345.08 594.67 353.7 589.71 362.26 585.01C365.05 583.48 376.11 577.23 386.78 571.1C397.47 564.97 408.07 558.93 410.4 557.63C414.14 555.57 447.72 536.56 455.18 532.31C460.5 529.26 476.81 520.04 480.98 517.7C483.3 516.42 487.28 514.1 489.91 512.56C495.48 509.3 499.7 506.96 505.52 503.78C507.85 502.51 513.39 499.38 517.79 496.82C522.19 494.27 528.14 490.82 530.98 489.29C533.83 487.75 538.32 485.18 541.04 483.47C543.78 481.77 546.25 480.4 546.48 480.4C548.23 480.4 557.88 473.07 562 468.65C567.94 462.24 571.7 454.6 573.68 445.25C575.85 435.09 575.96 205.43 573.81 195.15C571.98 186.45 567.83 178.24 562.35 172.21C556.48 165.77 553.38 163.75 527.17 149.17C524.84 147.87 517.87 143.94 511.65 140.39C502.2 134.96 456.09 108.74 446.62 103.41C445.07 102.55 438.71 99 432.51 95.43C426.29 91.86 419.33 87.8 416.99 86.52C414.66 85.25 402.58 78.51 390.14 71.46C377.72 64.42 361.1 55.04 353.23 50.58C335.62 40.62 330.4 38.95 317.46 39.64C305.86 40.24 303.92 41.13 276.73 56.51C265.09 63.11 253.6 69.51 251.28 70.78Z" id="caCTwGy8NZ"></path><path d="M251.28 70.78C248.95 72.05 243.41 75.18 239.02 77.73C234.6 80.29 229.59 83.23 227.79 84.24C224.79 85.91 208.93 94.81 154.77 125.55C144.41 131.42 134.67 137 133.12 137.87C131.58 138.73 122.04 144.09 111.94 149.84C101.85 155.59 91.98 161.2 89.96 162.28C83.95 165.5 75.05 174.81 71.67 181.45C65.44 193.68 65.88 185.96 65.88 319.85C65.88 437.86 65.94 445.27 68.55 451.98C72.96 463.36 78.56 470.63 87.53 476.63C90.54 478.64 93.19 480.39 93.43 480.39C93.66 480.39 98.52 482.99 104.31 486.32C110.09 489.64 115.01 492.37 115.19 492.37C115.35 492.37 118.25 494.05 121.54 496.02C124.83 497.98 129.4 500.65 131.73 501.95C137.1 504.94 153.92 514.4 157.65 516.55C159.21 517.46 164.74 520.57 169.92 523.51C175.1 526.45 180.52 529.58 182.08 530.48C185.41 532.41 208.5 545.44 214.59 548.84C216.92 550.14 221.49 552.82 224.78 554.77C228.07 556.74 230.97 558.31 231.13 558.31C231.31 558.31 234.95 560.39 239.24 562.88C243.53 565.35 248.95 568.44 251.27 569.72C253.6 571.01 264.68 577.16 275.8 583.52C300.05 597.38 302.09 598.36 311.57 600.52C318.26 602.05 320.42 602.15 327.19 600.99C332.48 600.07 342.04 596.92 344.08 595.4C345.08 594.67 353.7 589.71 362.26 585.01C365.05 583.48 376.11 577.23 386.78 571.1C397.47 564.97 408.07 558.93 410.4 557.63C414.14 555.57 447.72 536.56 455.18 532.31C460.5 529.26 476.81 520.04 480.98 517.7C483.3 516.42 487.28 514.1 489.91 512.56C495.48 509.3 499.7 506.96 505.52 503.78C507.85 502.51 513.39 499.38 517.79 496.82C522.19 494.27 528.14 490.82 530.98 489.29C533.83 487.75 538.32 485.18 541.04 483.47C543.78 481.77 546.25 480.4 546.48 480.4C548.23 480.4 557.88 473.07 562 468.65C567.94 462.24 571.7 454.6 573.68 445.25C575.85 435.09 575.96 205.43 573.81 195.15C571.98 186.45 567.83 178.24 562.35 172.21C556.48 165.77 553.38 163.75 527.17 149.17C524.84 147.87 517.87 143.94 511.65 140.39C502.2 134.96 456.09 108.74 446.62 103.41C445.07 102.55 438.71 99 432.51 95.43C426.29 91.86 419.33 87.8 416.99 86.52C414.66 85.25 402.58 78.51 390.14 71.46C377.72 64.42 361.1 55.04 353.23 50.58C335.62 40.62 330.4 38.95 317.46 39.64C305.86 40.24 303.92 41.13 276.73 56.51C265.09 63.11 253.6 69.51 251.28 70.78Z" id="ffQLMwGIe"></path><path d="M251.27 70.26C248.94 71.53 243.4 74.66 239 77.21C234.6 79.77 229.59 82.72 227.78 83.72C224.78 85.39 208.93 94.31 154.75 125.03C144.4 130.9 134.66 136.48 133.12 137.35C131.56 138.21 122.03 143.57 111.94 149.34C101.84 155.09 91.97 160.68 89.94 161.77C83.95 164.98 75.04 174.29 71.67 180.93C65.42 193.16 65.87 185.44 65.87 319.34C65.87 437.34 65.92 444.75 68.53 451.46C72.96 462.84 78.55 470.11 87.52 476.11C90.53 478.12 93.18 479.87 93.41 479.87C93.65 479.87 98.51 482.49 104.29 485.8C110.08 489.12 114.99 491.85 115.17 491.85C115.35 491.85 118.24 493.53 121.53 495.5C124.82 497.47 129.38 500.14 131.72 501.43C137.09 504.42 153.92 513.88 157.64 516.04C159.19 516.94 164.73 520.07 169.91 522.99C175.08 525.93 180.51 529.06 182.06 529.96C185.39 531.89 208.49 544.94 214.58 548.32C216.91 549.62 221.47 552.3 224.76 554.26C228.05 556.22 230.95 557.79 231.12 557.79C231.3 557.79 234.94 559.87 239.22 562.36C243.51 564.85 248.94 567.92 251.27 569.2C253.59 570.49 264.66 576.64 275.79 583.01C300.03 596.87 302.07 597.86 311.55 600C318.24 601.53 320.41 601.64 327.18 600.48C332.47 599.55 342.03 596.4 344.07 594.88C345.07 594.16 353.69 589.2 362.25 584.51C365.04 582.96 376.1 576.71 386.78 570.58C397.45 564.45 408.06 558.41 410.39 557.12C414.12 555.05 447.7 536.05 455.17 531.79C460.49 528.76 476.79 519.52 480.98 517.18C483.29 515.9 487.27 513.58 489.89 512.05C495.47 508.78 499.69 506.46 505.5 503.26C507.84 501.99 513.37 498.86 517.77 496.3C522.19 493.75 528.12 490.31 530.97 488.78C533.81 487.23 538.31 484.66 541.04 482.95C543.76 481.25 546.23 479.88 546.48 479.88C548.22 479.88 557.86 472.57 561.99 468.13C567.93 461.72 571.69 454.08 573.67 444.73C575.84 434.57 575.95 204.91 573.8 194.63C571.96 185.93 567.83 177.72 562.33 171.7C556.46 165.27 553.38 163.23 527.15 148.65C524.82 147.35 517.86 143.43 511.65 139.87C502.19 134.44 456.07 108.22 446.61 102.89C445.05 102.03 438.7 98.48 432.5 94.91C426.28 91.34 419.31 87.29 416.98 86.01C414.65 84.73 402.56 77.99 390.14 70.96C377.71 63.91 361.08 54.52 353.21 50.06C335.6 40.1 330.38 38.43 317.46 39.12C305.86 39.72 303.91 40.61 276.72 55.99C265.08 62.59 253.6 68.99 251.27 70.26Z" id="dhMqskBqw"></path><path d="M251.27 70.26C248.94 71.53 243.4 74.66 239 77.21C234.6 79.77 229.59 82.72 227.78 83.72C224.78 85.39 208.93 94.31 154.75 125.03C144.4 130.9 134.66 136.48 133.12 137.35C131.56 138.21 122.03 143.57 111.94 149.34C101.84 155.09 91.97 160.68 89.94 161.77C83.95 164.98 75.04 174.29 71.67 180.93C65.42 193.16 65.87 185.44 65.87 319.34C65.87 437.34 65.92 444.75 68.53 451.46C72.96 462.84 78.55 470.11 87.52 476.11C90.53 478.12 93.18 479.87 93.41 479.87C93.65 479.87 98.51 482.49 104.29 485.8C110.08 489.12 114.99 491.85 115.17 491.85C115.35 491.85 118.24 493.53 121.53 495.5C124.82 497.47 129.38 500.14 131.72 501.43C137.09 504.42 153.92 513.88 157.64 516.04C159.19 516.94 164.73 520.07 169.91 522.99C175.08 525.93 180.51 529.06 182.06 529.96C185.39 531.89 208.49 544.94 214.58 548.32C216.91 549.62 221.47 552.3 224.76 554.26C228.05 556.22 230.95 557.79 231.12 557.79C231.3 557.79 234.94 559.87 239.22 562.36C243.51 564.85 248.94 567.92 251.27 569.2C253.59 570.49 264.66 576.64 275.79 583.01C300.03 596.87 302.07 597.86 311.55 600C318.24 601.53 320.41 601.64 327.18 600.48C332.47 599.55 342.03 596.4 344.07 594.88C345.07 594.16 353.69 589.2 362.25 584.51C365.04 582.96 376.1 576.71 386.78 570.58C397.45 564.45 408.06 558.41 410.39 557.12C414.12 555.05 447.7 536.05 455.17 531.79C460.49 528.76 476.79 519.52 480.98 517.18C483.29 515.9 487.27 513.58 489.89 512.05C495.47 508.78 499.69 506.46 505.5 503.26C507.84 501.99 513.37 498.86 517.77 496.3C522.19 493.75 528.12 490.31 530.97 488.78C533.81 487.23 538.31 484.66 541.04 482.95C543.76 481.25 546.23 479.88 546.48 479.88C548.22 479.88 557.86 472.57 561.99 468.13C567.93 461.72 571.69 454.08 573.67 444.73C575.84 434.57 575.95 204.91 573.8 194.63C571.96 185.93 567.83 177.72 562.33 171.7C556.46 165.27 553.38 163.23 527.15 148.65C524.82 147.35 517.86 143.43 511.65 139.87C502.19 134.44 456.07 108.22 446.61 102.89C445.05 102.03 438.7 98.48 432.5 94.91C426.28 91.34 419.31 87.29 416.98 86.01C414.65 84.73 402.56 77.99 390.14 70.96C377.71 63.91 361.08 54.52 353.21 50.06C335.6 40.1 330.38 38.43 317.46 39.12C305.86 39.72 303.91 40.61 276.72 55.99C265.08 62.59 253.6 68.99 251.27 70.26Z" id="bGx5sFxKz"></path><path d="M136.6 503.2C138.89 504.56 144.4 507.71 148.85 510.2C153.29 512.67 158.39 515.49 160.18 516.53C163.13 518.26 178.9 527.34 232.97 558.23C243.3 564.13 253.07 569.66 254.61 570.54C256.15 571.43 265.62 576.9 275.72 582.64C285.82 588.38 295.68 594.01 297.63 595.19C303.46 598.71 316.09 601.66 323.63 601.22C337.48 600.43 330.47 603.91 448.08 536.96C551.73 477.95 558.21 474.21 562.8 468.63C570.6 459.16 574.18 450.75 574.96 440.1C575.2 436.52 575.45 433.38 575.32 433.17C575.2 433.01 575.09 427.53 575.09 420.93C575.1 414.32 575.04 408.77 574.96 408.62C574.91 408.44 574.91 405.15 574.99 401.35C575.04 397.56 575.11 392.33 575.11 389.69C575.06 383.61 574.93 364.51 574.99 360.26C575 358.48 574.99 352.18 574.97 346.3C574.96 340.42 574.99 334.22 575 332.44C575.04 328.63 574.95 302.39 574.89 295.49C574.86 292.87 574.93 287.62 575 283.84C575.07 280.04 575.03 276.78 574.95 276.63C574.89 276.46 574.89 272.33 574.91 267.42C574.95 262.53 574.93 256.36 574.91 253.73C574.86 251.11 574.73 238.56 574.78 225.88C574.84 198.25 574.67 196.01 571.84 186.84C570.69 183.11 568.88 181.21 567.54 179.03C518.16 207.2 123.17 432.61 73.79 460.79C74.37 461.75 74.37 462.58 75.04 463.63C81.33 473.22 84.24 473.09 111.34 488.6C122.97 495.24 134.32 501.85 136.6 503.2Z" id="bYL4fWjGr"></path><path d="M136.6 503.2C138.89 504.56 144.4 507.71 148.85 510.2C153.29 512.67 158.39 515.49 160.18 516.53C163.13 518.26 178.9 527.34 232.97 558.23C243.3 564.13 253.07 569.66 254.61 570.54C256.15 571.43 265.62 576.9 275.72 582.64C285.82 588.38 295.68 594.01 297.63 595.19C303.46 598.71 316.09 601.66 323.63 601.22C337.48 600.43 330.47 603.91 448.08 536.96C551.73 477.95 558.21 474.21 562.8 468.63C570.6 459.16 574.18 450.75 574.96 440.1C575.2 436.52 575.45 433.38 575.32 433.17C575.2 433.01 575.09 427.53 575.09 420.93C575.1 414.32 575.04 408.77 574.96 408.62C574.91 408.44 574.91 405.15 574.99 401.35C575.04 397.56 575.11 392.33 575.11 389.69C575.06 383.61 574.93 364.51 574.99 360.26C575 358.48 574.99 352.18 574.97 346.3C574.96 340.42 574.99 334.22 575 332.44C575.04 328.63 574.95 302.39 574.89 295.49C574.86 292.87 574.93 287.62 575 283.84C575.07 280.04 575.03 276.78 574.95 276.63C574.89 276.46 574.89 272.33 574.91 267.42C574.95 262.53 574.93 256.36 574.91 253.73C574.86 251.11 574.73 238.56 574.78 225.88C574.84 198.25 574.67 196.01 571.84 186.84C570.69 183.11 568.88 181.21 567.54 179.03C518.16 207.2 123.17 432.61 73.79 460.79C74.37 461.75 74.37 462.58 75.04 463.63C81.33 473.22 84.24 473.09 111.34 488.6C122.97 495.24 134.32 501.85 136.6 503.2Z" id="d3jhxD29og"></path><path d="M575.09 386.51C575.14 383.89 575.16 377.59 575.11 372.56C575.07 367.52 574.99 361.78 574.99 359.71C575.03 356.33 575.11 338.33 575.22 276.72C575.25 264.94 575.21 253.84 575.22 252.08C575.24 250.32 575.28 239.51 575.28 228C575.28 216.51 575.29 205.29 575.35 203.01C575.53 196.61 571.44 185.46 567.54 179.03C551.06 188.43 468.76 235.46 320.62 320.13C468.72 404.71 551.01 451.7 567.47 461.1C567.99 460.12 568.76 459.71 569.33 458.62C574.64 448.4 574.85 446.28 574.92 415.38C574.95 402.13 575.09 389.13 575.09 386.51Z" id="djgGtiznn"></path><path d="M575.09 386.51C575.14 383.89 575.16 377.59 575.11 372.56C575.07 367.52 574.99 361.78 574.99 359.71C575.03 356.33 575.11 338.33 575.22 276.72C575.25 264.94 575.21 253.84 575.22 252.08C575.24 250.32 575.28 239.51 575.28 228C575.28 216.51 575.29 205.29 575.35 203.01C575.53 196.61 571.44 185.46 567.54 179.03C551.06 188.43 468.76 235.46 320.62 320.13C468.72 404.71 551.01 451.7 567.47 461.1C567.99 460.12 568.76 459.71 569.33 458.62C574.64 448.4 574.85 446.28 574.92 415.38C574.95 402.13 575.09 389.13 575.09 386.51Z" id="bqHp2Jgx5"></path><path d="M328.03 153.33L329.7 153.39L331.4 153.48L333.08 153.57L334.76 153.67L336.45 153.8L338.13 153.94L339.81 154.09L341.49 154.27L343.17 154.46L344.83 154.65L346.51 154.87L348.18 155.12L349.84 155.36L351.51 155.62L353.16 155.91L354.81 156.21L356.47 156.52L358.11 156.85L359.76 157.19L361.4 157.56L363.04 157.94L364.66 158.33L366.29 158.75L367.91 159.17L369.52 159.61L371.13 160.08L372.74 160.54L374.33 161.03L375.92 161.55L378.57 162.43L381.19 163.36L383.8 164.33L386.38 165.35L388.96 166.4L391.53 167.51L394.07 168.66L396.59 169.85L399.09 171.09L401.58 172.36L404.05 173.67L406.49 175.02L408.9 176.42L411.3 177.85L413.68 179.33L416.04 180.85L418.37 182.39L420.66 183.98L422.93 185.6L425.2 187.27L427.42 188.96L429.61 190.68L431.77 192.46L433.91 194.25L436.01 196.08L438.09 197.95L440.13 199.85L442.14 201.78L444.12 203.75L446.07 205.74L447.98 207.76L449.86 209.81L451.7 211.91L453.51 214.01L455.27 216.15L457 218.33L458.68 220.51L460.35 222.74L461.96 225L463.53 227.26L463.75 227.59L463.96 227.91L464.18 228.22L464.39 228.53L464.59 228.85L464.79 229.16L465 229.46L465.19 229.76L465.38 230.05L465.57 230.35L465.76 230.64L465.94 230.93L466.12 231.2L466.29 231.47L466.45 231.73L466.62 231.99L466.77 232.25L466.94 232.5L467.08 232.73L467.23 232.96L467.37 233.19L467.49 233.41L467.62 233.62L467.74 233.82L467.85 234.01L467.97 234.21L468.06 234.38L468.16 234.55L468.24 234.7L468.33 234.85L468.41 234.98L468.48 235.11L468.53 235.23L468.59 235.33L468.63 235.42L468.67 235.5L468.7 235.57L468.72 235.63L468.73 235.68L468.73 235.71L468.73 235.74L468.72 235.78L468.7 235.8L468.67 235.85L468.63 235.9L468.58 235.94L468.53 236L468.47 236.06L468.4 236.12L468.33 236.19L468.24 236.26L468.15 236.32L468.05 236.41L467.95 236.47L467.84 236.56L467.72 236.64L467.59 236.73L467.47 236.82L467.33 236.91L467.19 237.01L467.05 237.1L466.9 237.2L466.73 237.31L466.58 237.4L466.41 237.51L466.23 237.62L466.06 237.73L465.88 237.84L465.69 237.95L465.51 238.07L465.32 238.18L465.11 238.29L464.91 238.41L464.7 238.54L464.5 238.65L464.29 238.77L464.08 238.89L463.86 239L463.64 239.12L463.41 239.25L463.19 239.37L462.96 239.49L462.72 239.62L462.48 239.75L462.25 239.88L462 240.01L461.75 240.15L461.51 240.29L461.25 240.42L461 240.56L460.75 240.7L460.49 240.83L460.24 240.98L459.97 241.12L459.72 241.26L459.46 241.41L459.21 241.54L458.96 241.68L458.7 241.83L458.45 241.97L458.2 242.1L457.95 242.24L457.7 242.38L457.45 242.51L457.21 242.65L456.97 242.79L456.74 242.91L456.5 243.05L456.28 243.17L456.06 243.29L455.84 243.42L455.63 243.54L455.42 243.66L455.23 243.77L455.03 243.88L454.84 243.99L454.66 244.1L454.48 244.19L454.31 244.29L454.16 244.39L453.99 244.48L453.81 244.58L453.63 244.69L453.42 244.81L453.2 244.93L452.98 245.07L452.74 245.21L452.48 245.36L452.23 245.51L451.95 245.66L451.66 245.82L451.37 245.98L451.06 246.16L450.76 246.34L450.44 246.53L450.11 246.71L449.77 246.9L449.43 247.1L449.08 247.3L448.72 247.5L448.36 247.71L448 247.92L447.62 248.13L447.25 248.35L446.87 248.57L446.48 248.79L446.09 249L445.71 249.22L445.32 249.44L444.92 249.67L444.53 249.89L444.12 250.12L443.72 250.34L443.33 250.58L442.93 250.79L442.53 251.03L442.14 251.25L441.75 251.48L441.35 251.7L440.96 251.91L440.57 252.13L440.18 252.35L439.79 252.57L439.41 252.8L439.02 253.02L438.63 253.24L438.24 253.46L437.87 253.68L437.48 253.9L437.1 254.11L436.73 254.33L436.35 254.54L435.98 254.76L435.62 254.96L435.26 255.17L434.9 255.37L434.55 255.58L434.2 255.77L433.86 255.97L433.52 256.16L433.2 256.34L432.88 256.53L432.58 256.71L432.27 256.88L431.97 257.05L431.69 257.22L431.41 257.38L431.15 257.53L430.89 257.68L430.64 257.82L430.4 257.95L430.18 258.09L429.96 258.21L429.76 258.32L429.57 258.43L429.39 258.54L429.22 258.64L429.07 258.72L428.94 258.8L428.82 258.87L428.44 259.09L428.03 259.32L427.58 259.58L427.08 259.87L426.56 260.17L425.99 260.5L425.4 260.84L424.78 261.19L424.13 261.56L423.45 261.94L422.75 262.34L422.03 262.75L421.28 263.17L420.53 263.6L419.76 264.04L418.98 264.49L418.19 264.92L417.4 265.37L416.59 265.84L415.77 266.29L414.97 266.75L414.16 267.21L413.36 267.66L412.57 268.11L411.78 268.56L411 269L410.24 269.43L409.49 269.86L408.75 270.27L408.03 270.68L407.34 271.06L406.67 271.44L406.03 271.8L405.41 272.15L404.82 272.48L404.27 272.79L403.75 273.08L403.27 273.35L402.83 273.6L402.42 273.82L402.23 273.93L402.03 274.04L401.84 274.15L401.65 274.24L401.47 274.35L401.27 274.45L401.08 274.54L400.88 274.65L400.7 274.75L400.52 274.84L400.33 274.93L400.15 275.02L399.97 275.12L399.79 275.2L399.62 275.28L399.44 275.36L399.27 275.45L399.11 275.53L398.95 275.6L398.79 275.68L398.63 275.75L398.48 275.81L398.33 275.87L398.19 275.94L398.05 275.99L397.91 276.05L397.79 276.1L397.66 276.14L397.55 276.2L397.43 276.24L397.33 276.28L397.22 276.31L397.12 276.33L397.04 276.36L396.95 276.39L396.87 276.42L396.8 276.43L396.75 276.43L396.69 276.44L396.64 276.44L396.59 276.44L396.54 276.43L396.48 276.43L396.43 276.4L396.37 276.39L396.32 276.36L396.25 276.32L396.18 276.29L396.11 276.25L396.04 276.2L395.97 276.16L395.89 276.1L395.8 276.05L395.73 275.98L395.65 275.91L395.57 275.84L395.48 275.77L395.39 275.69L395.3 275.61L395.22 275.53L395.12 275.45L395.04 275.35L394.94 275.25L394.86 275.16L394.76 275.06L394.67 274.95L394.58 274.84L394.48 274.73L394.39 274.63L394.3 274.52L394.21 274.39L394.11 274.28L394.03 274.16L393.93 274.04L393.83 273.9L393.75 273.78L393.65 273.66L393.57 273.52L393.49 273.38L393.4 273.25L392.97 272.59L392.51 271.91L392.04 271.22L391.54 270.54L391.02 269.84L390.47 269.13L389.91 268.42L389.32 267.7L388.71 266.97L388.09 266.25L387.44 265.52L386.78 264.8L386.1 264.06L385.41 263.34L384.7 262.6L383.98 261.88L383.24 261.15L382.51 260.43L381.76 259.7L380.98 258.99L380.22 258.28L379.44 257.57L378.65 256.89L377.86 256.19L377.05 255.52L376.25 254.85L375.44 254.2L374.64 253.54L373.82 252.91L373.02 252.3L372.2 251.68L371.39 251.1L370.57 250.52L369.77 249.96L368.96 249.43L368.17 248.9L367.38 248.39L366.59 247.91L365.81 247.45L365.05 247.01L364.58 246.75L364.11 246.49L363.64 246.24L363.14 245.98L362.64 245.72L362.12 245.47L361.6 245.21L361.07 244.96L360.53 244.7L359.99 244.44L359.43 244.19L358.86 243.93L358.29 243.69L357.72 243.44L357.14 243.2L356.54 242.94L355.96 242.71L355.35 242.46L354.75 242.21L354.14 241.98L353.53 241.73L352.92 241.5L352.3 241.27L351.67 241.04L351.06 240.82L350.42 240.6L349.8 240.38L349.17 240.16L348.55 239.94L347.91 239.74L347.29 239.53L346.65 239.33L346.02 239.14L345.4 238.93L344.78 238.76L344.14 238.56L343.53 238.39L342.9 238.21L342.28 238.05L341.67 237.88L340.96 237.7L340.2 237.54L339.41 237.39L338.56 237.24L337.68 237.1L336.78 236.98L335.84 236.87L334.85 236.76L333.85 236.67L332.83 236.58L331.77 236.52L330.69 236.45L329.59 236.39L328.48 236.35L327.36 236.31L326.21 236.28L325.06 236.27L323.9 236.26L322.74 236.27L321.57 236.27L320.39 236.3L319.23 236.32L318.06 236.36L316.9 236.42L315.74 236.47L314.61 236.54L313.47 236.62L312.36 236.72L311.26 236.82L310.18 236.91L309.12 237.03L308.08 237.16L307.07 237.28L306.1 237.43L305.14 237.58L304.23 237.73L303.35 237.91L302.51 238.09L301.7 238.26L300.94 238.47L297.91 239.33L294.94 240.27L292.03 241.32L289.17 242.46L286.37 243.68L283.63 244.97L280.95 246.37L278.34 247.83L275.79 249.37L273.31 251L270.89 252.69L268.55 254.47L266.27 256.31L264.06 258.23L261.94 260.21L259.89 262.25L257.9 264.36L256 266.54L254.17 268.76L252.44 271.06L250.77 273.4L249.19 275.8L247.69 278.25L246.29 280.75L244.97 283.3L243.73 285.9L242.6 288.54L241.54 291.23L240.58 293.95L239.72 296.72L238.95 299.52L238.28 302.35L237.71 305.22L237.24 308.13L236.86 311.05L236.6 314.02L236.43 317L236.38 320.01L236.43 323.04L236.59 326.09L236.71 327.68L236.86 329.26L237.06 330.84L237.27 332.4L237.52 333.97L237.78 335.51L238.09 337.07L238.41 338.6L238.77 340.13L239.15 341.65L239.56 343.17L240 344.67L240.47 346.16L240.96 347.63L241.49 349.1L242.03 350.56L242.61 352.01L243.21 353.44L243.83 354.86L244.48 356.27L245.16 357.66L245.87 359.04L246.61 360.41L247.36 361.75L248.13 363.09L248.94 364.41L249.77 365.71L250.63 367.01L251.51 368.28L252.41 369.54L253.34 370.78L254.29 372L255.27 373.2L256.27 374.39L257.29 375.55L258.33 376.7L259.4 377.82L260.5 378.93L261.61 380.02L262.75 381.09L263.4 381.69L264.05 382.27L264.69 382.85L265.31 383.41L265.92 383.94L266.53 384.47L267.15 384.99L267.74 385.5L268.32 385.99L268.91 386.47L269.48 386.93L270.05 387.38L270.61 387.84L271.18 388.27L271.74 388.7L272.29 389.11L272.85 389.52L273.4 389.9L273.96 390.3L274.5 390.68L275.06 391.05L275.61 391.4L276.17 391.77L276.72 392.11L277.28 392.45L277.84 392.8L278.4 393.14L278.97 393.47L279.55 393.78L280.12 394.11L280.72 394.42L281.3 394.74L281.91 395.05L282.51 395.35L283.13 395.67L283.76 395.97L284.38 396.27L285.03 396.57L285.69 396.87L286.35 397.17L287.24 397.56L288.13 397.95L288.99 398.33L289.85 398.69L290.7 399.03L291.54 399.35L292.36 399.67L293.19 399.98L294.01 400.27L294.82 400.56L295.64 400.82L296.44 401.08L297.25 401.32L298.05 401.55L298.86 401.77L299.66 401.99L300.47 402.18L301.27 402.37L302.09 402.55L302.91 402.73L303.73 402.88L304.56 403.03L305.41 403.18L306.25 403.3L307.11 403.43L307.99 403.54L308.86 403.65L309.76 403.73L310.67 403.82L311.59 403.89L312.54 403.96L313.5 404.03L314.47 404.08L315.47 404.12L316.48 404.16L317.51 404.19L318.56 404.22L319.64 404.23L320.75 404.25L321.88 404.25L322.89 404.25L323.86 404.25L324.81 404.25L325.71 404.23L326.58 404.22L327.42 404.21L328.22 404.19L329.01 404.18L329.76 404.15L330.5 404.12L331.22 404.1L331.91 404.06L332.58 404.01L333.24 403.96L333.88 403.92L334.52 403.85L335.13 403.8L335.74 403.71L336.35 403.65L336.95 403.55L337.55 403.47L338.14 403.36L338.73 403.25L339.32 403.14L339.92 403.02L340.53 402.88L341.14 402.73L341.76 402.58L342.39 402.42L343.04 402.25L343.69 402.06L344.37 401.87L345.07 401.66L345.77 401.46L346.51 401.23L347.27 400.99L348.05 400.73L348.87 400.48L349.7 400.2L350.58 399.91L351.8 399.49L353.02 399.05L354.24 398.59L355.46 398.1L356.68 397.58L357.89 397.05L359.1 396.49L360.3 395.91L361.5 395.31L362.69 394.68L363.89 394.04L365.06 393.38L366.23 392.7L367.4 391.99L368.55 391.28L369.69 390.54L370.82 389.79L371.93 389.01L373.04 388.23L374.14 387.43L375.24 386.61L376.31 385.77L377.36 384.92L378.4 384.06L379.43 383.19L380.43 382.3L381.43 381.4L382.4 380.48L383.36 379.55L384.28 378.63L385.2 377.68L386.1 376.73L386.98 375.76L387.84 374.79L388.67 373.8L389.48 372.8L390.27 371.81L391.03 370.8L391.76 369.78L392.47 368.76L392.61 368.55L392.76 368.35L392.9 368.14L393.04 367.94L393.19 367.75L393.33 367.56L393.49 367.37L393.62 367.19L393.76 367.01L393.9 366.83L394.04 366.66L394.18 366.49L394.32 366.33L394.46 366.18L394.6 366.01L394.73 365.86L394.86 365.73L395 365.59L395.12 365.45L395.25 365.33L395.37 365.21L395.5 365.08L395.62 364.97L395.73 364.87L395.86 364.77L395.97 364.67L396.08 364.59L396.18 364.51L396.29 364.44L396.39 364.37L396.48 364.31L396.58 364.25L396.68 364.21L396.76 364.17L396.86 364.14L396.93 364.11L397.01 364.09L397.08 364.09L397.15 364.07L397.22 364.09L397.3 364.11L397.45 364.17L397.65 364.26L397.91 364.39L398.22 364.54L398.58 364.72L398.99 364.93L399.47 365.18L399.98 365.45L400.54 365.75L401.15 366.08L401.8 366.42L402.51 366.81L403.24 367.22L404.02 367.64L404.85 368.09L405.71 368.57L406.61 369.06L407.54 369.58L408.51 370.11L409.53 370.67L410.57 371.26L411.65 371.86L412.75 372.48L413.89 373.11L415.05 373.76L416.24 374.43L417.45 375.11L418.7 375.81L419.96 376.52L421.25 377.25L422.56 377.98L423.89 378.73L425.24 379.5L426.61 380.27L428 381.06L429.39 381.85L430.8 382.66L432.23 383.46L433.67 384.28L468.73 404.25L466.3 408.47L466.05 408.91L465.77 409.36L465.48 409.84L465.16 410.31L464.84 410.82L464.51 411.34L464.15 411.86L463.79 412.4L463.41 412.95L463.01 413.51L462.61 414.08L462.21 414.67L461.78 415.26L461.35 415.86L460.9 416.46L460.46 417.06L460 417.68L459.53 418.31L459.06 418.92L458.58 419.55L458.1 420.18L457.61 420.81L457.13 421.42L456.63 422.05L456.14 422.68L455.64 423.29L455.14 423.92L454.64 424.54L454.14 425.14L453.64 425.74L453.14 426.34L452.65 426.93L452.16 427.52L451.66 428.09L451.17 428.65L450.7 429.2L450.22 429.74L449.76 430.28L449.29 430.78L448.83 431.29L447.12 433.12L445.39 434.94L443.61 436.73L441.81 438.49L439.98 440.24L438.12 441.95L436.23 443.64L434.33 445.31L432.38 446.95L430.43 448.56L428.44 450.15L426.43 451.7L424.4 453.23L422.35 454.72L420.28 456.2L418.19 457.63L416.08 459.04L413.95 460.42L411.82 461.77L409.65 463.09L407.49 464.36L405.31 465.61L403.1 466.82L400.9 468.01L398.68 469.14L396.46 470.25L394.21 471.33L391.96 472.35L389.71 473.35L387.45 474.32L385.19 475.23L382.91 476.12L380.64 476.96L378.36 477.76L376.08 478.53L373.81 479.25L371.53 479.93L369.26 480.58L366.98 481.16L364.7 481.72L364.51 481.77L364.3 481.82L364.11 481.86L363.9 481.92L363.69 481.96L363.48 482.01L363.26 482.07L363.05 482.11L362.83 482.16L362.62 482.22L362.4 482.27L362.18 482.33L361.96 482.37L361.73 482.42L361.51 482.48L361.29 482.53L361.07 482.59L360.86 482.64L360.64 482.69L360.42 482.75L360.21 482.79L359.99 482.84L359.78 482.9L359.57 482.95L359.36 483.01L359.15 483.05L358.94 483.1L358.75 483.15L358.56 483.2L358.36 483.24L358.18 483.3L357.99 483.34L357.82 483.38L357.64 483.43L357.47 483.47L357.31 483.51L357.15 483.56L357 483.58L356.85 483.62L356.71 483.66L356.57 483.69L356.42 483.73L356.27 483.77L356.1 483.81L355.92 483.84L355.74 483.88L355.54 483.92L355.35 483.97L355.14 484.01L354.92 484.05L354.7 484.09L354.48 484.14L354.24 484.18L354 484.22L353.77 484.27L353.52 484.32L353.25 484.36L353.01 484.4L352.74 484.44L352.48 484.5L352.21 484.54L351.94 484.58L351.66 484.63L351.38 484.68L351.1 484.72L350.83 484.77L350.55 484.81L350.26 484.85L349.98 484.91L349.69 484.95L349.41 484.99L349.12 485.03L348.83 485.09L348.55 485.13L348.27 485.17L347.98 485.21L347.7 485.25L347.43 485.29L347.15 485.33L346.89 485.37L346.29 485.45L345.65 485.54L344.97 485.6L344.23 485.69L343.46 485.77L342.64 485.84L341.78 485.92L340.88 485.99L339.96 486.06L339 486.14L338.02 486.21L337 486.26L335.98 486.33L334.94 486.4L333.87 486.45L332.79 486.51L331.7 486.56L330.61 486.62L329.51 486.67L328.4 486.71L327.3 486.75L326.21 486.79L325.11 486.83L324.03 486.88L322.96 486.9L321.91 486.93L320.86 486.96L319.84 486.97L318.85 486.98L317.88 487L316.94 487L316.02 487.01L315.15 487L314.3 487L313.51 486.98L312.75 486.97L312.04 486.94L311.37 486.93L310.75 486.89L310.19 486.86L307.7 486.66L305.2 486.41L302.71 486.14L300.22 485.82L297.72 485.47L295.23 485.07L292.75 484.65L290.27 484.18L287.79 483.69L285.32 483.16L282.85 482.59L280.4 481.98L277.96 481.34L275.51 480.67L273.08 479.96L270.67 479.22L268.27 478.44L265.87 477.64L263.48 476.79L261.12 475.92L258.76 475.01L256.43 474.09L254.1 473.12L251.8 472.1L249.51 471.08L247.25 470.01L245 468.92L242.76 467.8L240.56 466.64L238.36 465.46L236.2 464.25L234.06 463L231.94 461.73L229.84 460.43L227.78 459.11L225.74 457.76L223.72 456.36L221.74 454.96L219.77 453.52L217.84 452.06L217.16 451.51L216.44 450.95L215.72 450.36L214.97 449.75L214.2 449.11L213.43 448.45L212.63 447.77L211.84 447.07L211.02 446.35L210.21 445.62L209.37 444.87L208.54 444.11L207.71 443.34L206.86 442.55L206.02 441.76L205.17 440.96L204.34 440.16L203.49 439.34L202.64 438.52L201.81 437.7L200.99 436.88L200.16 436.06L199.35 435.24L198.55 434.42L197.76 433.61L196.98 432.81L196.22 432L195.47 431.21L194.75 430.43L194.03 429.66L193.33 428.9L192.67 428.16L192.01 427.42L191.39 426.71L190.79 426.01L190.22 425.34L189.67 424.69L189.15 424.05L188.67 423.43L188.22 422.84L188.04 422.61L187.88 422.39L187.7 422.16L187.53 421.94L187.35 421.72L187.18 421.49L187.02 421.27L186.85 421.07L186.68 420.85L186.53 420.64L186.36 420.44L186.21 420.23L186.06 420.03L185.91 419.84L185.75 419.65L185.62 419.46L185.46 419.28L185.32 419.1L185.2 418.92L185.06 418.76L184.94 418.59L184.81 418.44L184.69 418.29L184.57 418.14L184.46 418.01L184.35 417.87L184.26 417.75L184.16 417.62L184.07 417.51L183.99 417.42L183.91 417.31L183.84 417.23L183.77 417.15L183.7 417.06L183.64 417L183.6 416.94L183.56 416.9L183.52 416.86L183.49 416.82L183.48 416.8L183.45 416.78L183.42 416.75L183.38 416.69L183.34 416.64L183.3 416.57L183.24 416.5L183.17 416.42L183.1 416.33L183.03 416.22L182.95 416.11L182.87 415.98L182.77 415.86L182.67 415.72L182.58 415.57L182.47 415.42L182.35 415.26L182.24 415.08L182.12 414.92L181.99 414.73L181.87 414.54L181.73 414.34L181.59 414.14L181.45 413.93L181.3 413.72L181.15 413.5L181.01 413.28L180.84 413.05L180.69 412.81L180.52 412.58L180.36 412.34L180.19 412.09L180.02 411.84L179.86 411.58L179.69 411.32L179.51 411.07L179.33 410.81L179.15 410.53L178.98 410.27L178.8 410L178.61 409.73L177.69 408.33L176.79 406.91L175.89 405.46L175.01 404.01L174.14 402.54L173.29 401.05L172.45 399.53L171.61 398.02L170.81 396.47L170 394.93L169.21 393.36L168.45 391.78L167.69 390.19L166.95 388.59L166.23 386.97L165.52 385.35L164.83 383.72L164.15 382.08L163.48 380.43L162.84 378.76L162.22 377.1L161.61 375.43L161.01 373.75L160.44 372.07L159.89 370.37L159.35 368.68L158.82 366.98L158.32 365.29L157.83 363.58L157.37 361.89L156.93 360.18L156.5 358.48L156.1 356.78L155.72 355.07L155.35 353.37L155.02 351.68L154.68 349.98L154.39 348.29L154.11 346.6L153.85 344.92L153.14 339.52L152.6 334.15L152.25 328.78L152.06 323.43L152.05 318.12L152.18 312.83L152.5 307.57L152.99 302.35L153.63 297.16L154.43 292.01L155.4 286.9L156.53 281.83L157.8 276.81L159.25 271.85L160.84 266.95L162.59 262.09L164.48 257.3L166.53 252.57L168.73 247.91L171.06 243.32L173.54 238.8L176.16 234.34L178.94 229.98L181.84 225.69L184.89 221.48L188.07 217.37L191.39 213.35L194.84 209.42L198.42 205.58L202.14 201.85L205.97 198.21L209.94 194.67L214.04 191.26L218.26 187.94L222.6 184.75L227.07 181.67L231.65 178.7L236.34 175.87L241.15 173.15L246.08 170.58L247.52 169.86L248.97 169.16L250.44 168.48L251.91 167.81L253.38 167.15L254.86 166.51L256.36 165.88L257.88 165.27L259.39 164.68L260.91 164.11L262.44 163.53L264 162.99L265.54 162.45L267.09 161.93L268.66 161.43L270.23 160.95L271.81 160.47L273.39 160.02L274.99 159.57L276.58 159.15L278.18 158.74L279.79 158.34L281.4 157.96L283.02 157.59L284.64 157.25L286.28 156.91L287.92 156.59L289.56 156.28L291.19 155.99L292.85 155.72L294.5 155.46L296.15 155.21L297.81 154.98L299.48 154.77L301.13 154.57L302.81 154.39L304.48 154.21L306.15 154.06L307.82 153.93L309.5 153.8L309.5 153.8L309.5 153.72L309.5 153.69L309.5 153.67L311.18 153.57L312.86 153.48L314.54 153.39L316.22 153.34L317.91 153.28L319.59 153.26L321.28 153.24L322.96 153.24L324.65 153.26L326.33 153.28L328.03 153.33Z" id="gxipc4aaM"></path><path d="M328.03 153.33L329.7 153.39L331.4 153.48L333.08 153.57L334.76 153.67L336.45 153.8L338.13 153.94L339.81 154.09L341.49 154.27L343.17 154.46L344.83 154.65L346.51 154.87L348.18 155.12L349.84 155.36L351.51 155.62L353.16 155.91L354.81 156.21L356.47 156.52L358.11 156.85L359.76 157.19L361.4 157.56L363.04 157.94L364.66 158.33L366.29 158.75L367.91 159.17L369.52 159.61L371.13 160.08L372.74 160.54L374.33 161.03L375.92 161.55L378.57 162.43L381.19 163.36L383.8 164.33L386.38 165.35L388.96 166.4L391.53 167.51L394.07 168.66L396.59 169.85L399.09 171.09L401.58 172.36L404.05 173.67L406.49 175.02L408.9 176.42L411.3 177.85L413.68 179.33L416.04 180.85L418.37 182.39L420.66 183.98L422.93 185.6L425.2 187.27L427.42 188.96L429.61 190.68L431.77 192.46L433.91 194.25L436.01 196.08L438.09 197.95L440.13 199.85L442.14 201.78L444.12 203.75L446.07 205.74L447.98 207.76L449.86 209.81L451.7 211.91L453.51 214.01L455.27 216.15L457 218.33L458.68 220.51L460.35 222.74L461.96 225L463.53 227.26L463.75 227.59L463.96 227.91L464.18 228.22L464.39 228.53L464.59 228.85L464.79 229.16L465 229.46L465.19 229.76L465.38 230.05L465.57 230.35L465.76 230.64L465.94 230.93L466.12 231.2L466.29 231.47L466.45 231.73L466.62 231.99L466.77 232.25L466.94 232.5L467.08 232.73L467.23 232.96L467.37 233.19L467.49 233.41L467.62 233.62L467.74 233.82L467.85 234.01L467.97 234.21L468.06 234.38L468.16 234.55L468.24 234.7L468.33 234.85L468.41 234.98L468.48 235.11L468.53 235.23L468.59 235.33L468.63 235.42L468.67 235.5L468.7 235.57L468.72 235.63L468.73 235.68L468.73 235.71L468.73 235.74L468.72 235.78L468.7 235.8L468.67 235.85L468.63 235.9L468.58 235.94L468.53 236L468.47 236.06L468.4 236.12L468.33 236.19L468.24 236.26L468.15 236.32L468.05 236.41L467.95 236.47L467.84 236.56L467.72 236.64L467.59 236.73L467.47 236.82L467.33 236.91L467.19 237.01L467.05 237.1L466.9 237.2L466.73 237.31L466.58 237.4L466.41 237.51L466.23 237.62L466.06 237.73L465.88 237.84L465.69 237.95L465.51 238.07L465.32 238.18L465.11 238.29L464.91 238.41L464.7 238.54L464.5 238.65L464.29 238.77L464.08 238.89L463.86 239L463.64 239.12L463.41 239.25L463.19 239.37L462.96 239.49L462.72 239.62L462.48 239.75L462.25 239.88L462 240.01L461.75 240.15L461.51 240.29L461.25 240.42L461 240.56L460.75 240.7L460.49 240.83L460.24 240.98L459.97 241.12L459.72 241.26L459.46 241.41L459.21 241.54L458.96 241.68L458.7 241.83L458.45 241.97L458.2 242.1L457.95 242.24L457.7 242.38L457.45 242.51L457.21 242.65L456.97 242.79L456.74 242.91L456.5 243.05L456.28 243.17L456.06 243.29L455.84 243.42L455.63 243.54L455.42 243.66L455.23 243.77L455.03 243.88L454.84 243.99L454.66 244.1L454.48 244.19L454.31 244.29L454.16 244.39L453.99 244.48L453.81 244.58L453.63 244.69L453.42 244.81L453.2 244.93L452.98 245.07L452.74 245.21L452.48 245.36L452.23 245.51L451.95 245.66L451.66 245.82L451.37 245.98L451.06 246.16L450.76 246.34L450.44 246.53L450.11 246.71L449.77 246.9L449.43 247.1L449.08 247.3L448.72 247.5L448.36 247.71L448 247.92L447.62 248.13L447.25 248.35L446.87 248.57L446.48 248.79L446.09 249L445.71 249.22L445.32 249.44L444.92 249.67L444.53 249.89L444.12 250.12L443.72 250.34L443.33 250.58L442.93 250.79L442.53 251.03L442.14 251.25L441.75 251.48L441.35 251.7L440.96 251.91L440.57 252.13L440.18 252.35L439.79 252.57L439.41 252.8L439.02 253.02L438.63 253.24L438.24 253.46L437.87 253.68L437.48 253.9L437.1 254.11L436.73 254.33L436.35 254.54L435.98 254.76L435.62 254.96L435.26 255.17L434.9 255.37L434.55 255.58L434.2 255.77L433.86 255.97L433.52 256.16L433.2 256.34L432.88 256.53L432.58 256.71L432.27 256.88L431.97 257.05L431.69 257.22L431.41 257.38L431.15 257.53L430.89 257.68L430.64 257.82L430.4 257.95L430.18 258.09L429.96 258.21L429.76 258.32L429.57 258.43L429.39 258.54L429.22 258.64L429.07 258.72L428.94 258.8L428.82 258.87L428.44 259.09L428.03 259.32L427.58 259.58L427.08 259.87L426.56 260.17L425.99 260.5L425.4 260.84L424.78 261.19L424.13 261.56L423.45 261.94L422.75 262.34L422.03 262.75L421.28 263.17L420.53 263.6L419.76 264.04L418.98 264.49L418.19 264.92L417.4 265.37L416.59 265.84L415.77 266.29L414.97 266.75L414.16 267.21L413.36 267.66L412.57 268.11L411.78 268.56L411 269L410.24 269.43L409.49 269.86L408.75 270.27L408.03 270.68L407.34 271.06L406.67 271.44L406.03 271.8L405.41 272.15L404.82 272.48L404.27 272.79L403.75 273.08L403.27 273.35L402.83 273.6L402.42 273.82L402.23 273.93L402.03 274.04L401.84 274.15L401.65 274.24L401.47 274.35L401.27 274.45L401.08 274.54L400.88 274.65L400.7 274.75L400.52 274.84L400.33 274.93L400.15 275.02L399.97 275.12L399.79 275.2L399.62 275.28L399.44 275.36L399.27 275.45L399.11 275.53L398.95 275.6L398.79 275.68L398.63 275.75L398.48 275.81L398.33 275.87L398.19 275.94L398.05 275.99L397.91 276.05L397.79 276.1L397.66 276.14L397.55 276.2L397.43 276.24L397.33 276.28L397.22 276.31L397.12 276.33L397.04 276.36L396.95 276.39L396.87 276.42L396.8 276.43L396.75 276.43L396.69 276.44L396.64 276.44L396.59 276.44L396.54 276.43L396.48 276.43L396.43 276.4L396.37 276.39L396.32 276.36L396.25 276.32L396.18 276.29L396.11 276.25L396.04 276.2L395.97 276.16L395.89 276.1L395.8 276.05L395.73 275.98L395.65 275.91L395.57 275.84L395.48 275.77L395.39 275.69L395.3 275.61L395.22 275.53L395.12 275.45L395.04 275.35L394.94 275.25L394.86 275.16L394.76 275.06L394.67 274.95L394.58 274.84L394.48 274.73L394.39 274.63L394.3 274.52L394.21 274.39L394.11 274.28L394.03 274.16L393.93 274.04L393.83 273.9L393.75 273.78L393.65 273.66L393.57 273.52L393.49 273.38L393.4 273.25L392.97 272.59L392.51 271.91L392.04 271.22L391.54 270.54L391.02 269.84L390.47 269.13L389.91 268.42L389.32 267.7L388.71 266.97L388.09 266.25L387.44 265.52L386.78 264.8L386.1 264.06L385.41 263.34L384.7 262.6L383.98 261.88L383.24 261.15L382.51 260.43L381.76 259.7L380.98 258.99L380.22 258.28L379.44 257.57L378.65 256.89L377.86 256.19L377.05 255.52L376.25 254.85L375.44 254.2L374.64 253.54L373.82 252.91L373.02 252.3L372.2 251.68L371.39 251.1L370.57 250.52L369.77 249.96L368.96 249.43L368.17 248.9L367.38 248.39L366.59 247.91L365.81 247.45L365.05 247.01L364.58 246.75L364.11 246.49L363.64 246.24L363.14 245.98L362.64 245.72L362.12 245.47L361.6 245.21L361.07 244.96L360.53 244.7L359.99 244.44L359.43 244.19L358.86 243.93L358.29 243.69L357.72 243.44L357.14 243.2L356.54 242.94L355.96 242.71L355.35 242.46L354.75 242.21L354.14 241.98L353.53 241.73L352.92 241.5L352.3 241.27L351.67 241.04L351.06 240.82L350.42 240.6L349.8 240.38L349.17 240.16L348.55 239.94L347.91 239.74L347.29 239.53L346.65 239.33L346.02 239.14L345.4 238.93L344.78 238.76L344.14 238.56L343.53 238.39L342.9 238.21L342.28 238.05L341.67 237.88L340.96 237.7L340.2 237.54L339.41 237.39L338.56 237.24L337.68 237.1L336.78 236.98L335.84 236.87L334.85 236.76L333.85 236.67L332.83 236.58L331.77 236.52L330.69 236.45L329.59 236.39L328.48 236.35L327.36 236.31L326.21 236.28L325.06 236.27L323.9 236.26L322.74 236.27L321.57 236.27L320.39 236.3L319.23 236.32L318.06 236.36L316.9 236.42L315.74 236.47L314.61 236.54L313.47 236.62L312.36 236.72L311.26 236.82L310.18 236.91L309.12 237.03L308.08 237.16L307.07 237.28L306.1 237.43L305.14 237.58L304.23 237.73L303.35 237.91L302.51 238.09L301.7 238.26L300.94 238.47L297.91 239.33L294.94 240.27L292.03 241.32L289.17 242.46L286.37 243.68L283.63 244.97L280.95 246.37L278.34 247.83L275.79 249.37L273.31 251L270.89 252.69L268.55 254.47L266.27 256.31L264.06 258.23L261.94 260.21L259.89 262.25L257.9 264.36L256 266.54L254.17 268.76L252.44 271.06L250.77 273.4L249.19 275.8L247.69 278.25L246.29 280.75L244.97 283.3L243.73 285.9L242.6 288.54L241.54 291.23L240.58 293.95L239.72 296.72L238.95 299.52L238.28 302.35L237.71 305.22L237.24 308.13L236.86 311.05L236.6 314.02L236.43 317L236.38 320.01L236.43 323.04L236.59 326.09L236.71 327.68L236.86 329.26L237.06 330.84L237.27 332.4L237.52 333.97L237.78 335.51L238.09 337.07L238.41 338.6L238.77 340.13L239.15 341.65L239.56 343.17L240 344.67L240.47 346.16L240.96 347.63L241.49 349.1L242.03 350.56L242.61 352.01L243.21 353.44L243.83 354.86L244.48 356.27L245.16 357.66L245.87 359.04L246.61 360.41L247.36 361.75L248.13 363.09L248.94 364.41L249.77 365.71L250.63 367.01L251.51 368.28L252.41 369.54L253.34 370.78L254.29 372L255.27 373.2L256.27 374.39L257.29 375.55L258.33 376.7L259.4 377.82L260.5 378.93L261.61 380.02L262.75 381.09L263.4 381.69L264.05 382.27L264.69 382.85L265.31 383.41L265.92 383.94L266.53 384.47L267.15 384.99L267.74 385.5L268.32 385.99L268.91 386.47L269.48 386.93L270.05 387.38L270.61 387.84L271.18 388.27L271.74 388.7L272.29 389.11L272.85 389.52L273.4 389.9L273.96 390.3L274.5 390.68L275.06 391.05L275.61 391.4L276.17 391.77L276.72 392.11L277.28 392.45L277.84 392.8L278.4 393.14L278.97 393.47L279.55 393.78L280.12 394.11L280.72 394.42L281.3 394.74L281.91 395.05L282.51 395.35L283.13 395.67L283.76 395.97L284.38 396.27L285.03 396.57L285.69 396.87L286.35 397.17L287.24 397.56L288.13 397.95L288.99 398.33L289.85 398.69L290.7 399.03L291.54 399.35L292.36 399.67L293.19 399.98L294.01 400.27L294.82 400.56L295.64 400.82L296.44 401.08L297.25 401.32L298.05 401.55L298.86 401.77L299.66 401.99L300.47 402.18L301.27 402.37L302.09 402.55L302.91 402.73L303.73 402.88L304.56 403.03L305.41 403.18L306.25 403.3L307.11 403.43L307.99 403.54L308.86 403.65L309.76 403.73L310.67 403.82L311.59 403.89L312.54 403.96L313.5 404.03L314.47 404.08L315.47 404.12L316.48 404.16L317.51 404.19L318.56 404.22L319.64 404.23L320.75 404.25L321.88 404.25L322.89 404.25L323.86 404.25L324.81 404.25L325.71 404.23L326.58 404.22L327.42 404.21L328.22 404.19L329.01 404.18L329.76 404.15L330.5 404.12L331.22 404.1L331.91 404.06L332.58 404.01L333.24 403.96L333.88 403.92L334.52 403.85L335.13 403.8L335.74 403.71L336.35 403.65L336.95 403.55L337.55 403.47L338.14 403.36L338.73 403.25L339.32 403.14L339.92 403.02L340.53 402.88L341.14 402.73L341.76 402.58L342.39 402.42L343.04 402.25L343.69 402.06L344.37 401.87L345.07 401.66L345.77 401.46L346.51 401.23L347.27 400.99L348.05 400.73L348.87 400.48L349.7 400.2L350.58 399.91L351.8 399.49L353.02 399.05L354.24 398.59L355.46 398.1L356.68 397.58L357.89 397.05L359.1 396.49L360.3 395.91L361.5 395.31L362.69 394.68L363.89 394.04L365.06 393.38L366.23 392.7L367.4 391.99L368.55 391.28L369.69 390.54L370.82 389.79L371.93 389.01L373.04 388.23L374.14 387.43L375.24 386.61L376.31 385.77L377.36 384.92L378.4 384.06L379.43 383.19L380.43 382.3L381.43 381.4L382.4 380.48L383.36 379.55L384.28 378.63L385.2 377.68L386.1 376.73L386.98 375.76L387.84 374.79L388.67 373.8L389.48 372.8L390.27 371.81L391.03 370.8L391.76 369.78L392.47 368.76L392.61 368.55L392.76 368.35L392.9 368.14L393.04 367.94L393.19 367.75L393.33 367.56L393.49 367.37L393.62 367.19L393.76 367.01L393.9 366.83L394.04 366.66L394.18 366.49L394.32 366.33L394.46 366.18L394.6 366.01L394.73 365.86L394.86 365.73L395 365.59L395.12 365.45L395.25 365.33L395.37 365.21L395.5 365.08L395.62 364.97L395.73 364.87L395.86 364.77L395.97 364.67L396.08 364.59L396.18 364.51L396.29 364.44L396.39 364.37L396.48 364.31L396.58 364.25L396.68 364.21L396.76 364.17L396.86 364.14L396.93 364.11L397.01 364.09L397.08 364.09L397.15 364.07L397.22 364.09L397.3 364.11L397.45 364.17L397.65 364.26L397.91 364.39L398.22 364.54L398.58 364.72L398.99 364.93L399.47 365.18L399.98 365.45L400.54 365.75L401.15 366.08L401.8 366.42L402.51 366.81L403.24 367.22L404.02 367.64L404.85 368.09L405.71 368.57L406.61 369.06L407.54 369.58L408.51 370.11L409.53 370.67L410.57 371.26L411.65 371.86L412.75 372.48L413.89 373.11L415.05 373.76L416.24 374.43L417.45 375.11L418.7 375.81L419.96 376.52L421.25 377.25L422.56 377.98L423.89 378.73L425.24 379.5L426.61 380.27L428 381.06L429.39 381.85L430.8 382.66L432.23 383.46L433.67 384.28L468.73 404.25L466.3 408.47L466.05 408.91L465.77 409.36L465.48 409.84L465.16 410.31L464.84 410.82L464.51 411.34L464.15 411.86L463.79 412.4L463.41 412.95L463.01 413.51L462.61 414.08L462.21 414.67L461.78 415.26L461.35 415.86L460.9 416.46L460.46 417.06L460 417.68L459.53 418.31L459.06 418.92L458.58 419.55L458.1 420.18L457.61 420.81L457.13 421.42L456.63 422.05L456.14 422.68L455.64 423.29L455.14 423.92L454.64 424.54L454.14 425.14L453.64 425.74L453.14 426.34L452.65 426.93L452.16 427.52L451.66 428.09L451.17 428.65L450.7 429.2L450.22 429.74L449.76 430.28L449.29 430.78L448.83 431.29L447.12 433.12L445.39 434.94L443.61 436.73L441.81 438.49L439.98 440.24L438.12 441.95L436.23 443.64L434.33 445.31L432.38 446.95L430.43 448.56L428.44 450.15L426.43 451.7L424.4 453.23L422.35 454.72L420.28 456.2L418.19 457.63L416.08 459.04L413.95 460.42L411.82 461.77L409.65 463.09L407.49 464.36L405.31 465.61L403.1 466.82L400.9 468.01L398.68 469.14L396.46 470.25L394.21 471.33L391.96 472.35L389.71 473.35L387.45 474.32L385.19 475.23L382.91 476.12L380.64 476.96L378.36 477.76L376.08 478.53L373.81 479.25L371.53 479.93L369.26 480.58L366.98 481.16L364.7 481.72L364.51 481.77L364.3 481.82L364.11 481.86L363.9 481.92L363.69 481.96L363.48 482.01L363.26 482.07L363.05 482.11L362.83 482.16L362.62 482.22L362.4 482.27L362.18 482.33L361.96 482.37L361.73 482.42L361.51 482.48L361.29 482.53L361.07 482.59L360.86 482.64L360.64 482.69L360.42 482.75L360.21 482.79L359.99 482.84L359.78 482.9L359.57 482.95L359.36 483.01L359.15 483.05L358.94 483.1L358.75 483.15L358.56 483.2L358.36 483.24L358.18 483.3L357.99 483.34L357.82 483.38L357.64 483.43L357.47 483.47L357.31 483.51L357.15 483.56L357 483.58L356.85 483.62L356.71 483.66L356.57 483.69L356.42 483.73L356.27 483.77L356.1 483.81L355.92 483.84L355.74 483.88L355.54 483.92L355.35 483.97L355.14 484.01L354.92 484.05L354.7 484.09L354.48 484.14L354.24 484.18L354 484.22L353.77 484.27L353.52 484.32L353.25 484.36L353.01 484.4L352.74 484.44L352.48 484.5L352.21 484.54L351.94 484.58L351.66 484.63L351.38 484.68L351.1 484.72L350.83 484.77L350.55 484.81L350.26 484.85L349.98 484.91L349.69 484.95L349.41 484.99L349.12 485.03L348.83 485.09L348.55 485.13L348.27 485.17L347.98 485.21L347.7 485.25L347.43 485.29L347.15 485.33L346.89 485.37L346.29 485.45L345.65 485.54L344.97 485.6L344.23 485.69L343.46 485.77L342.64 485.84L341.78 485.92L340.88 485.99L339.96 486.06L339 486.14L338.02 486.21L337 486.26L335.98 486.33L334.94 486.4L333.87 486.45L332.79 486.51L331.7 486.56L330.61 486.62L329.51 486.67L328.4 486.71L327.3 486.75L326.21 486.79L325.11 486.83L324.03 486.88L322.96 486.9L321.91 486.93L320.86 486.96L319.84 486.97L318.85 486.98L317.88 487L316.94 487L316.02 487.01L315.15 487L314.3 487L313.51 486.98L312.75 486.97L312.04 486.94L311.37 486.93L310.75 486.89L310.19 486.86L307.7 486.66L305.2 486.41L302.71 486.14L300.22 485.82L297.72 485.47L295.23 485.07L292.75 484.65L290.27 484.18L287.79 483.69L285.32 483.16L282.85 482.59L280.4 481.98L277.96 481.34L275.51 480.67L273.08 479.96L270.67 479.22L268.27 478.44L265.87 477.64L263.48 476.79L261.12 475.92L258.76 475.01L256.43 474.09L254.1 473.12L251.8 472.1L249.51 471.08L247.25 470.01L245 468.92L242.76 467.8L240.56 466.64L238.36 465.46L236.2 464.25L234.06 463L231.94 461.73L229.84 460.43L227.78 459.11L225.74 457.76L223.72 456.36L221.74 454.96L219.77 453.52L217.84 452.06L217.16 451.51L216.44 450.95L215.72 450.36L214.97 449.75L214.2 449.11L213.43 448.45L212.63 447.77L211.84 447.07L211.02 446.35L210.21 445.62L209.37 444.87L208.54 444.11L207.71 443.34L206.86 442.55L206.02 441.76L205.17 440.96L204.34 440.16L203.49 439.34L202.64 438.52L201.81 437.7L200.99 436.88L200.16 436.06L199.35 435.24L198.55 434.42L197.76 433.61L196.98 432.81L196.22 432L195.47 431.21L194.75 430.43L194.03 429.66L193.33 428.9L192.67 428.16L192.01 427.42L191.39 426.71L190.79 426.01L190.22 425.34L189.67 424.69L189.15 424.05L188.67 423.43L188.22 422.84L188.04 422.61L187.88 422.39L187.7 422.16L187.53 421.94L187.35 421.72L187.18 421.49L187.02 421.27L186.85 421.07L186.68 420.85L186.53 420.64L186.36 420.44L186.21 420.23L186.06 420.03L185.91 419.84L185.75 419.65L185.62 419.46L185.46 419.28L185.32 419.1L185.2 418.92L185.06 418.76L184.94 418.59L184.81 418.44L184.69 418.29L184.57 418.14L184.46 418.01L184.35 417.87L184.26 417.75L184.16 417.62L184.07 417.51L183.99 417.42L183.91 417.31L183.84 417.23L183.77 417.15L183.7 417.06L183.64 417L183.6 416.94L183.56 416.9L183.52 416.86L183.49 416.82L183.48 416.8L183.45 416.78L183.42 416.75L183.38 416.69L183.34 416.64L183.3 416.57L183.24 416.5L183.17 416.42L183.1 416.33L183.03 416.22L182.95 416.11L182.87 415.98L182.77 415.86L182.67 415.72L182.58 415.57L182.47 415.42L182.35 415.26L182.24 415.08L182.12 414.92L181.99 414.73L181.87 414.54L181.73 414.34L181.59 414.14L181.45 413.93L181.3 413.72L181.15 413.5L181.01 413.28L180.84 413.05L180.69 412.81L180.52 412.58L180.36 412.34L180.19 412.09L180.02 411.84L179.86 411.58L179.69 411.32L179.51 411.07L179.33 410.81L179.15 410.53L178.98 410.27L178.8 410L178.61 409.73L177.69 408.33L176.79 406.91L175.89 405.46L175.01 404.01L174.14 402.54L173.29 401.05L172.45 399.53L171.61 398.02L170.81 396.47L170 394.93L169.21 393.36L168.45 391.78L167.69 390.19L166.95 388.59L166.23 386.97L165.52 385.35L164.83 383.72L164.15 382.08L163.48 380.43L162.84 378.76L162.22 377.1L161.61 375.43L161.01 373.75L160.44 372.07L159.89 370.37L159.35 368.68L158.82 366.98L158.32 365.29L157.83 363.58L157.37 361.89L156.93 360.18L156.5 358.48L156.1 356.78L155.72 355.07L155.35 353.37L155.02 351.68L154.68 349.98L154.39 348.29L154.11 346.6L153.85 344.92L153.14 339.52L152.6 334.15L152.25 328.78L152.06 323.43L152.05 318.12L152.18 312.83L152.5 307.57L152.99 302.35L153.63 297.16L154.43 292.01L155.4 286.9L156.53 281.83L157.8 276.81L159.25 271.85L160.84 266.95L162.59 262.09L164.48 257.3L166.53 252.57L168.73 247.91L171.06 243.32L173.54 238.8L176.16 234.34L178.94 229.98L181.84 225.69L184.89 221.48L188.07 217.37L191.39 213.35L194.84 209.42L198.42 205.58L202.14 201.85L205.97 198.21L209.94 194.67L214.04 191.26L218.26 187.94L222.6 184.75L227.07 181.67L231.65 178.7L236.34 175.87L241.15 173.15L246.08 170.58L247.52 169.86L248.97 169.16L250.44 168.48L251.91 167.81L253.38 167.15L254.86 166.51L256.36 165.88L257.88 165.27L259.39 164.68L260.91 164.11L262.44 163.53L264 162.99L265.54 162.45L267.09 161.93L268.66 161.43L270.23 160.95L271.81 160.47L273.39 160.02L274.99 159.57L276.58 159.15L278.18 158.74L279.79 158.34L281.4 157.96L283.02 157.59L284.64 157.25L286.28 156.91L287.92 156.59L289.56 156.28L291.19 155.99L292.85 155.72L294.5 155.46L296.15 155.21L297.81 154.98L299.48 154.77L301.13 154.57L302.81 154.39L304.48 154.21L306.15 154.06L307.82 153.93L309.5 153.8L309.5 153.8L309.5 153.72L309.5 153.69L309.5 153.67L311.18 153.57L312.86 153.48L314.54 153.39L316.22 153.34L317.91 153.28L319.59 153.26L321.28 153.24L322.96 153.24L324.65 153.26L326.33 153.28L328.03 153.33Z" id="h26iurA1xp"></path></defs><g><g><g><use xlink:href="#a3euhmAhrq" opacity="1" fill="#000000" fill-opacity="0"></use><g><use xlink:href="#a3euhmAhrq" opacity="1" fill-opacity="0" stroke="#000000" stroke-width="1" stroke-opacity="0"></use></g></g><g><use xlink:href="#b2Z09VN1g" opacity="1" fill="#000000" fill-opacity="0"></use><g><use xlink:href="#b2Z09VN1g" opacity="1" fill-opacity="0" stroke="#3c3c3c" stroke-width="0.8" stroke-opacity="0.39"></use></g></g><g><use xlink:href="#caCTwGy8NZ" opacity="1" fill="#000000" fill-opacity="0"></use><g><use xlink:href="#caCTwGy8NZ" opacity="1" fill-opacity="0" stroke="#000000" stroke-width="1" stroke-opacity="0"></use></g></g><g><use xlink:href="#ffQLMwGIe" opacity="1" fill="#000000" fill-opacity="0"></use><g><use xlink:href="#ffQLMwGIe" opacity="1" fill-opacity="0" stroke="#ffffff" stroke-width="0.5" stroke-opacity="1"></use></g></g><g><use xlink:href="#dhMqskBqw" opacity="1" fill="#7b757b" fill-opacity="1"></use><g><use xlink:href="#dhMqskBqw" opacity="1" fill-opacity="0" stroke="#000000" stroke-width="1" stroke-opacity="0"></use></g></g><g><use xlink:href="#bGx5sFxKz" opacity="1" fill="#000000" fill-opacity="0"></use><g><use xlink:href="#bGx5sFxKz" opacity="1" fill-opacity="0" stroke="#000000" stroke-width="3" stroke-opacity="0"></use></g></g><g><use xlink:href="#bYL4fWjGr" opacity="1" fill="#211324" fill-opacity="1"></use><g><use xlink:href="#bYL4fWjGr" opacity="1" fill-opacity="0" stroke="#000000" stroke-width="1" stroke-opacity="0"></use></g></g><g><use xlink:href="#d3jhxD29og" opacity="1" fill="#000000" fill-opacity="0"></use><g><use xlink:href="#d3jhxD29og" opacity="1" fill-opacity="0" stroke="#000000" stroke-width="3" stroke-opacity="0"></use></g></g><g><use xlink:href="#djgGtiznn" opacity="1" fill="#423642" fill-opacity="1"></use><g><use xlink:href="#djgGtiznn" opacity="1" fill-opacity="0" stroke="#000000" stroke-width="1" stroke-opacity="0"></use></g></g><g><use xlink:href="#bqHp2Jgx5" opacity="1" fill="#000000" fill-opacity="0"></use><g><use xlink:href="#bqHp2Jgx5" opacity="1" fill-opacity="0" stroke="#000000" stroke-width="3" stroke-opacity="0"></use></g></g><g><use xlink:href="#gxipc4aaM" opacity="1" fill="#ffffff" fill-opacity="1"></use><g><use xlink:href="#gxipc4aaM" opacity="1" fill-opacity="0" stroke="#000000" stroke-width="1" stroke-opacity="0"></use></g></g><g><use xlink:href="#h26iurA1xp" opacity="1" fill="#000000" fill-opacity="0"></use><g><use xlink:href="#h26iurA1xp" opacity="1" fill-opacity="0" stroke="#000000" stroke-width="1" stroke-opacity="0"></use></g></g></g></g></svg>