<?xml version="1.0" encoding="UTF-8" standalone="no"?>
<!DOCTYPE svg PUBLIC "-//W3C//DTD SVG 1.1//EN" "http://www.w3.org/Graphics/SVG/1.1/DTD/svg11.dtd">
<svg version="1.1" xmlns="http://www.w3.org/2000/svg" xmlns:xlink="http://www.w3.org/1999/xlink" preserveAspectRatio="xMidYMid meet" viewBox="0 0 640 640" width="640" height="640"><defs><path d="M328.27 60.71L362.48 97.82L362.48 115.49L292.03 115.49L292.03 94.81L326.22 94.81L292.03 57.69L292.03 40L361.16 40L361.16 60.71L328.27 60.71Z" id="e6b2jF4VEx"></path><path d="M131.87 150.59L528.13 150.59L492.04 555.01L329.76 600L167.93 555.08L131.87 150.59Z" id="imIVzEugh"></path><path d="M461.13 529.26L491.98 183.66L330 183.66L330 565.61L461.13 529.26Z" id="btlCY8D7N"></path><path d="M395.65 330.21L400.18 279.41L330 279.41L330 229.8L330.17 229.8L454.4 229.8L453.21 243.11L441.01 379.81L330 379.81L330 330.21L395.65 330.21Z" id="l2LCqHcX5m"></path><path d="M330.08 459.1L274.83 444.18L271.3 404.62L244.45 404.62L221.5 404.62L228.45 482.51L330.07 510.72L330.3 510.66L330.3 459.04L330.08 459.1Z" id="b1uSWqkXUq"></path><path d="M385.46 444.15L330.13 459.09L330.13 510.7L431.83 482.51L432.57 474.13L441.2 377.71L391.43 377.71L385.46 444.15Z" id="ahB9aZZFW"></path><path d="M330.17 260.61L330.17 279.28L330.17 279.41L210.5 279.41L210.5 279.41L210.34 279.41L209.35 268.26L207.09 243.11L205.9 229.8L330.17 229.8L330.17 260.61Z" id="d8FgRo2CNG"></path><path d="M330 361.03L330 379.7L330 379.82L275.61 379.82L275.61 379.82L275.45 379.82L274.46 368.67L272.2 343.52L271.01 330.21L330 330.21L330 361.03Z" id="d1riIAVPGm"></path><path d="M227.62 97.65L227.62 60.84L279.66 61L279.66 40.65L210.46 40.65L210.46 114.84L280.91 114.84L280.91 97.45L227.62 97.65Z" id="d1xmmRQRsu"></path><path d="M408.72 60.71L442.92 97.82L442.92 115.49L372.47 115.49L372.47 94.81L406.67 94.81L372.47 57.69L372.47 40L441.61 40L441.61 60.71L408.72 60.71Z" id="e8wDFTYFqQ"></path></defs><g><g><g><use xlink:href="#e6b2jF4VEx" opacity="1" fill="#131313" fill-opacity="1"></use><g><use xlink:href="#e6b2jF4VEx" opacity="1" fill-opacity="0" stroke="#000000" stroke-width="1" stroke-opacity="0"></use></g></g><g><use xlink:href="#imIVzEugh" opacity="1" fill="#0a151d" fill-opacity="1"></use><g><use xlink:href="#imIVzEugh" opacity="1" fill-opacity="0" stroke="#000000" stroke-width="1" stroke-opacity="0"></use></g></g><g><use xlink:href="#btlCY8D7N" opacity="1" fill="#283135" fill-opacity="1"></use><g><use xlink:href="#btlCY8D7N" opacity="1" fill-opacity="0" stroke="#000000" stroke-width="1" stroke-opacity="0"></use></g></g><g><use xlink:href="#l2LCqHcX5m" opacity="1" fill="#ffffff" fill-opacity="1"></use><g><use xlink:href="#l2LCqHcX5m" opacity="1" fill-opacity="0" stroke="#000000" stroke-width="1" stroke-opacity="0"></use></g></g><g><use xlink:href="#b1uSWqkXUq" opacity="1" fill="#ebebeb" fill-opacity="1"></use><g><use xlink:href="#b1uSWqkXUq" opacity="1" fill-opacity="0" stroke="#000000" stroke-width="1" stroke-opacity="0"></use></g></g><g><use xlink:href="#ahB9aZZFW" opacity="1" fill="#ffffff" fill-opacity="1"></use><g><use xlink:href="#ahB9aZZFW" opacity="1" fill-opacity="0" stroke="#000000" stroke-width="1" stroke-opacity="0"></use></g></g><g><use xlink:href="#d8FgRo2CNG" opacity="1" fill="#ebebeb" fill-opacity="1"></use><g><use xlink:href="#d8FgRo2CNG" opacity="1" fill-opacity="0" stroke="#000000" stroke-width="1" stroke-opacity="0"></use></g></g><g><use xlink:href="#d1riIAVPGm" opacity="1" fill="#ebebeb" fill-opacity="1"></use><g><use xlink:href="#d1riIAVPGm" opacity="1" fill-opacity="0" stroke="#000000" stroke-width="1" stroke-opacity="0"></use></g></g><g><use xlink:href="#d1xmmRQRsu" opacity="1" fill="#000000" fill-opacity="1"></use><g><use xlink:href="#d1xmmRQRsu" opacity="1" fill-opacity="0" stroke="#000000" stroke-width="1" stroke-opacity="1"></use></g></g><g><use xlink:href="#e8wDFTYFqQ" opacity="1" fill="#131313" fill-opacity="1"></use><g><use xlink:href="#e8wDFTYFqQ" opacity="1" fill-opacity="0" stroke="#000000" stroke-width="1" stroke-opacity="0"></use></g></g></g></g></svg>