<?xml version="1.0" encoding="UTF-8" standalone="no"?>
<!DOCTYPE svg PUBLIC "-//W3C//DTD SVG 1.1//EN" "http://www.w3.org/Graphics/SVG/1.1/DTD/svg11.dtd">
<svg version="1.1" xmlns="http://www.w3.org/2000/svg" xmlns:xlink="http://www.w3.org/1999/xlink" preserveAspectRatio="xMidYMid meet" viewBox="0 0 640 640" width="640" height="640"><defs><path d="M202.01 524.08L103.39 599.01L0 416.75L215.75 40.99L316.77 110.33L320.1 222.72L319.14 223.27L207.36 417.93L202.01 524.08Z" id="abQEuEHaRd"></path><path d="M277.15 296.4L320.1 222.72L316.77 74.77L215.75 40.99L277.15 296.4Z" id="k4dcvYC3MN"></path><path d="M640 416.75L523.65 475.6L431.51 417.31L431.51 416.75L320.1 222.72L215.75 40.99L424.23 40.99L640 416.75Z" id="b9DYVdmXn"></path><path d="M536.67 597.83L103.39 599.01L207.36 417.93L431.51 417.31L640 416.75L536.67 597.83Z" id="dpSzMkKxU"></path><path d="M284.69 417.72L207.36 417.93L103.39 599.01L284.69 417.72Z" id="ak2Ye7lOS"></path><path d="M403.45 368.29L431.51 417.72L640 417.15L403.45 368.29Z" id="d1pxmjHZ7V"></path></defs><g><g><g><use xlink:href="#abQEuEHaRd" opacity="1" fill="#415947" fill-opacity="1"></use><g><use xlink:href="#abQEuEHaRd" opacity="1" fill-opacity="0" stroke="#000000" stroke-width="1" stroke-opacity="0"></use></g></g><g><use xlink:href="#k4dcvYC3MN" opacity="1" fill="#142c19" fill-opacity="1"></use><g><use xlink:href="#k4dcvYC3MN" opacity="1" fill-opacity="0" stroke="#000000" stroke-width="1" stroke-opacity="0"></use></g></g><g><use xlink:href="#b9DYVdmXn" opacity="1" fill="#5c5234" fill-opacity="1"></use><g><use xlink:href="#b9DYVdmXn" opacity="1" fill-opacity="0" stroke="#000000" stroke-width="1" stroke-opacity="0"></use></g></g><g><use xlink:href="#dpSzMkKxU" opacity="1" fill="#384044" fill-opacity="1"></use><g><use xlink:href="#dpSzMkKxU" opacity="1" fill-opacity="0" stroke="#000000" stroke-width="1" stroke-opacity="0"></use></g></g><g><use xlink:href="#ak2Ye7lOS" opacity="1" fill="#0a151d" fill-opacity="1"></use><g><use xlink:href="#ak2Ye7lOS" opacity="1" fill-opacity="0" stroke="#000000" stroke-width="1" stroke-opacity="0"></use></g></g><g><use xlink:href="#d1pxmjHZ7V" opacity="1" fill="#2a2212" fill-opacity="1"></use><g><use xlink:href="#d1pxmjHZ7V" opacity="1" fill-opacity="0" stroke="#000000" stroke-width="1" stroke-opacity="0"></use></g></g></g></g></svg>