<?xml version="1.0" encoding="UTF-8" standalone="no"?>
<!DOCTYPE svg PUBLIC "-//W3C//DTD SVG 1.1//EN" "http://www.w3.org/Graphics/SVG/1.1/DTD/svg11.dtd">
<svg version="1.1" xmlns="http://www.w3.org/2000/svg" xmlns:xlink="http://www.w3.org/1999/xlink" preserveAspectRatio="xMidYMid meet" viewBox="0 0 640 640" width="640" height="640"><defs><path d="M104 148.99L536.35 148.99L496.96 554.85L319.91 600L143.35 554.92L104 148.99Z" id="c9quTbxpS"></path><path d="M463.76 530.33L497.42 183.5L320.69 183.5L320.69 566.81L463.76 530.33Z" id="c40FpVK0P"></path><path d="M249.07 334.06L244.12 283.08L320.69 283.08L320.69 233.29L320.51 233.29L184.97 233.29L186.27 246.65L199.57 383.84L320.69 383.84L320.69 334.06L249.07 334.06Z" id="gaAqX6Ph5s"></path><path d="M320.46 463.41L260.18 448.44L256.32 408.73L227.03 408.73L201.99 408.73L209.57 486.9L320.44 515.21L320.69 515.15L320.69 463.35L320.46 463.41Z" id="a2PWWP9qiO"></path><path d="M172.25 40L172.25 65L197.41 65L197.41 40L224.92 40L224.92 115.7L197.41 115.7L197.41 90.35L172.25 90.35L172.25 115.7L144.74 115.7L144.74 40L144.74 40L172.25 40Z" id="ctWfMpBDi"></path><path d="M236.87 65.1L236.87 40L312.82 40L312.82 65.1L288.6 65.1L288.6 115.7L261.09 115.7L261.09 65.1L261.09 65.1L236.87 65.1Z" id="f1YTlTPUOc"></path><path d="M353.56 40L371.2 66.6L388.83 40L417.52 40L417.52 115.7L390.13 115.7L390.13 78.18L371.2 105.09L370.73 105.09L351.79 78.18L351.79 115.7L324.88 115.7L324.88 40L353.56 40Z" id="fbXRhhpCW"></path><path d="M458.72 40L458.72 90.67L497.4 90.67L497.4 115.69L431.21 115.69L431.21 40L458.72 40Z" id="a4LaXtxuyJ"></path><path d="M320.51 383.84L387.16 383.84L380.87 448.41L320.51 463.39L320.51 515.19L431.47 486.9L432.28 478.49L445 347.42L446.32 334.06L431.73 334.06L320.51 334.06L320.51 383.84Z" id="k1wqh4uDd5"></path><path d="M320.51 264.21L320.51 282.95L320.51 283.08L451.07 283.08L451.07 283.08L451.24 283.08L452.33 271.88L454.8 246.65L456.09 233.29L320.51 233.29L320.51 264.21Z" id="b3pG6dmCWR"></path></defs><g><g><g><use xlink:href="#c9quTbxpS" opacity="1" fill="#30221e" fill-opacity="1"></use><g><use xlink:href="#c9quTbxpS" opacity="1" fill-opacity="0" stroke="#000000" stroke-width="1" stroke-opacity="0"></use></g></g><g><use xlink:href="#c40FpVK0P" opacity="1" fill="#3c322d" fill-opacity="1"></use><g><use xlink:href="#c40FpVK0P" opacity="1" fill-opacity="0" stroke="#000000" stroke-width="1" stroke-opacity="0"></use></g></g><g><use xlink:href="#gaAqX6Ph5s" opacity="1" fill="#ebebeb" fill-opacity="1"></use><g><use xlink:href="#gaAqX6Ph5s" opacity="1" fill-opacity="0" stroke="#000000" stroke-width="1" stroke-opacity="0"></use></g></g><g><use xlink:href="#a2PWWP9qiO" opacity="1" fill="#ebebeb" fill-opacity="1"></use><g><use xlink:href="#a2PWWP9qiO" opacity="1" fill-opacity="0" stroke="#000000" stroke-width="1" stroke-opacity="0"></use></g></g><g><use xlink:href="#ctWfMpBDi" opacity="1" fill="#010101" fill-opacity="1"></use><g><use xlink:href="#ctWfMpBDi" opacity="1" fill-opacity="0" stroke="#000000" stroke-width="1" stroke-opacity="0"></use></g></g><g><use xlink:href="#f1YTlTPUOc" opacity="1" fill="#010101" fill-opacity="1"></use><g><use xlink:href="#f1YTlTPUOc" opacity="1" fill-opacity="0" stroke="#000000" stroke-width="1" stroke-opacity="0"></use></g></g><g><use xlink:href="#fbXRhhpCW" opacity="1" fill="#010101" fill-opacity="1"></use><g><use xlink:href="#fbXRhhpCW" opacity="1" fill-opacity="0" stroke="#000000" stroke-width="1" stroke-opacity="0"></use></g></g><g><use xlink:href="#a4LaXtxuyJ" opacity="1" fill="#010101" fill-opacity="1"></use><g><use xlink:href="#a4LaXtxuyJ" opacity="1" fill-opacity="0" stroke="#000000" stroke-width="1" stroke-opacity="0"></use></g></g><g><use xlink:href="#k1wqh4uDd5" opacity="1" fill="#ffffff" fill-opacity="1"></use><g><use xlink:href="#k1wqh4uDd5" opacity="1" fill-opacity="0" stroke="#000000" stroke-width="1" stroke-opacity="0"></use></g></g><g><use xlink:href="#b3pG6dmCWR" opacity="1" fill="#ffffff" fill-opacity="1"></use><g><use xlink:href="#b3pG6dmCWR" opacity="1" fill-opacity="0" stroke="#000000" stroke-width="1" stroke-opacity="0"></use></g></g></g></g></svg>