<?xml version="1.0" encoding="UTF-8" standalone="no"?>
<!DOCTYPE svg PUBLIC "-//W3C//DTD SVG 1.1//EN" "http://www.w3.org/Graphics/SVG/1.1/DTD/svg11.dtd">
<svg version="1.1" xmlns="http://www.w3.org/2000/svg" xmlns:xlink="http://www.w3.org/1999/xlink" preserveAspectRatio="xMidYMid meet" viewBox="0 0 640 640" width="640" height="640"><defs><path d="M587.53 454.44C586.03 458.35 585.19 460.52 585.02 460.95C542.25 544.25 466.45 595.36 358.33 597.61C307.79 598.66 259.63 585.69 228.17 571.59C160.28 541.08 103.17 484.51 71.99 424.07C27.25 337.42 19.18 216.89 112.2 126.87C113.64 126.87 100.92 146.39 102.36 146.39C102.1 147.23 100.05 153.89 99.8 154.72C32.77 364.58 239.28 544.43 440.03 523.86C488.27 518.91 549.79 492.49 587.53 454.44" id="aAAAzWfgK"></path><path d="M466.05 367.67C516.56 368.01 569.31 344.4 600.55 311.26C573.22 380.64 494.09 425.24 387.97 411.05C299.11 399.16 214.46 309.75 205.75 220.15C199.37 154.94 222.09 116.02 259.54 68.81C246.53 93.51 241.66 112.55 240.45 124.69C226.23 265.75 353.13 366.92 466.05 367.67" id="d2C2ZY7fcf"></path><path d="M595.48 192.47C587.63 210.48 542.42 244.48 522.46 248.74C443.41 265.58 392.79 228.09 366.27 185.43C362.33 179.06 355.04 161.67 353.73 157.24C343.45 122.27 348.18 69.38 378.86 42C369.61 68.03 368.26 98.27 373.13 117.93C376.08 129.81 385.06 150.56 394.04 163.62C410.39 187.39 420.76 193.16 441.76 205.79C451.22 211.47 461.37 216.03 465.75 217.28C485.67 223.15 527.71 238.59 595.48 192.47" id="cPUYPlHJa"></path></defs><g><g><path></path><g><use xlink:href="#aAAAzWfgK" opacity="1" fill="#2d2e38" fill-opacity="1"></use><g><use xlink:href="#aAAAzWfgK" opacity="1" fill-opacity="0" stroke="#000000" stroke-width="1" stroke-opacity="0"></use></g></g><g><use xlink:href="#d2C2ZY7fcf" opacity="1" fill="#2d2e38" fill-opacity="1"></use><g><use xlink:href="#d2C2ZY7fcf" opacity="1" fill-opacity="0" stroke="#000000" stroke-width="1" stroke-opacity="0"></use></g></g><g><use xlink:href="#cPUYPlHJa" opacity="1" fill="#2d2e38" fill-opacity="1"></use><g><use xlink:href="#cPUYPlHJa" opacity="1" fill-opacity="0" stroke="#000000" stroke-width="1" stroke-opacity="0"></use></g></g></g></g></svg>