<?xml version="1.0" encoding="UTF-8" standalone="no"?>
<!DOCTYPE svg PUBLIC "-//W3C//DTD SVG 1.1//EN" "http://www.w3.org/Graphics/SVG/1.1/DTD/svg11.dtd">
<svg version="1.1" xmlns="http://www.w3.org/2000/svg" xmlns:xlink="http://www.w3.org/1999/xlink" preserveAspectRatio="xMidYMid meet" viewBox="0 0 640 640" width="640" height="640"><defs><path d="M121.69 150.2L518.31 150.2L482.17 554.97L319.76 600L157.79 555.04L121.69 150.2Z" id="a1H70cCGK"></path><path d="M450.91 528.7L481.79 182.8L319.67 182.8L319.67 565.08L450.91 528.7Z" id="b4nWT0MGd"></path><path d="M357.66 60.78L391.9 97.93L391.9 115.61L321.39 115.61L321.39 94.9L355.61 94.9L321.39 57.76L321.39 40.05L390.58 40.05L390.58 60.78L390.58 60.78L357.66 60.78Z" id="b33ou6eV5g"></path><path d="M308.83 115.57L248.1 115.57L248.1 90.62L283.59 90.62L283.59 40.08L308.83 40.08L308.83 40.08L308.83 115.57Z" id="a91sB9g67"></path><path d="M319.37 461.99L264.08 447.06L260.54 407.46L233.67 407.46L210.7 407.46L217.66 485.42L319.36 513.66L319.59 513.59L319.59 461.93L319.37 461.99Z" id="d9rHlboiT"></path><path d="M326.28 332.96L265.14 332.96L272.31 255.03L326.42 253.59L326.28 201.96L227.42 201.96L223.75 238.56L212.08 369.28L210.86 382.61L224.25 382.61L326.28 382.61L326.28 332.96Z" id="a1Zcqm6pF4"></path><path d="M326.16 253.6L380.39 256.87L384.99 308.13L411.86 308.13L434.83 308.13L426.15 212.2L326.17 201.94L325.94 202L325.94 253.66L326.16 253.6Z" id="b1NsXtHDOK"></path><path d="M429.72 253.81L425.46 201.96L320.65 201.96L320.65 234.16L320.65 253.68L320.65 253.81L429.72 253.81" id="aJ3gncqMU"></path><path d="M319.42 382.63L380.56 382.63L374.8 447.03L319.42 461.97L319.42 513.63L421.21 485.42L421.95 477.03L433.62 346.32L434.83 332.98L421.45 332.98L319.42 332.98L319.42 382.63Z" id="dvJuw8g2b"></path><path d="" id="aQfVpStuu"></path></defs><g><g><g><use xlink:href="#a1H70cCGK" opacity="1" fill="#2a2212" fill-opacity="1"></use><g><use xlink:href="#a1H70cCGK" opacity="1" fill-opacity="0" stroke="#000000" stroke-width="1" stroke-opacity="0"></use></g></g><g><use xlink:href="#b4nWT0MGd" opacity="1" fill="#50482f" fill-opacity="1"></use><g><use xlink:href="#b4nWT0MGd" opacity="1" fill-opacity="0" stroke="#000000" stroke-width="1" stroke-opacity="0"></use></g></g><g><use xlink:href="#b33ou6eV5g" opacity="1" fill="#151515" fill-opacity="1"></use><g><use xlink:href="#b33ou6eV5g" opacity="1" fill-opacity="0" stroke="#000000" stroke-width="1" stroke-opacity="0"></use></g></g><g><use xlink:href="#a91sB9g67" opacity="1" fill="#020202" fill-opacity="1"></use><g><use xlink:href="#a91sB9g67" opacity="1" fill-opacity="0" stroke="#000000" stroke-width="1" stroke-opacity="0"></use></g></g><g><use xlink:href="#d9rHlboiT" opacity="1" fill="#ebebeb" fill-opacity="1"></use><g><use xlink:href="#d9rHlboiT" opacity="1" fill-opacity="0" stroke="#000000" stroke-width="1" stroke-opacity="0"></use></g></g><g><use xlink:href="#a1Zcqm6pF4" opacity="1" fill="#ebebeb" fill-opacity="1"></use><g><use xlink:href="#a1Zcqm6pF4" opacity="1" fill-opacity="0" stroke="#000000" stroke-width="1" stroke-opacity="0"></use></g></g><g><use xlink:href="#b1NsXtHDOK" opacity="1" fill="#ffffff" fill-opacity="1"></use><g><use xlink:href="#b1NsXtHDOK" opacity="1" fill-opacity="0" stroke="#000000" stroke-width="1" stroke-opacity="0"></use></g></g><g><use xlink:href="#aJ3gncqMU" opacity="1" fill="#ffffff" fill-opacity="1"></use><g><use xlink:href="#aJ3gncqMU" opacity="1" fill-opacity="0" stroke="#000000" stroke-width="1" stroke-opacity="0"></use></g></g><g><use xlink:href="#dvJuw8g2b" opacity="1" fill="#ffffff" fill-opacity="1"></use><g><use xlink:href="#dvJuw8g2b" opacity="1" fill-opacity="0" stroke="#000000" stroke-width="1" stroke-opacity="0"></use></g></g><g><use xlink:href="#aQfVpStuu" opacity="1" fill="#ffffff" fill-opacity="1"></use><g><use xlink:href="#aQfVpStuu" opacity="1" fill-opacity="0" stroke="#000000" stroke-width="1" stroke-opacity="0"></use></g></g></g></g></svg>