<?xml version="1.0" standalone="no"?><!-- Generator: Gravit.io --><svg xmlns="http://www.w3.org/2000/svg" xmlns:xlink="http://www.w3.org/1999/xlink" style="isolation:isolate" viewBox="0 0 700 150" width="700" height="150"><defs><clipPath id="_clipPath_OChnGoVevRaWlAeh6HuCFgy1VRjwvubG"><rect width="700" height="150"/></clipPath></defs><g clip-path="url(#_clipPath_OChnGoVevRaWlAeh6HuCFgy1VRjwvubG)"><g id="layer2"/><g id="fr-fr"><g id="sublayer4a"><g id="Group"><g id="ModifKey"><defs><filter id="fY6LBIGMX7ihYvn49eM9rlq7WPZRiRvd" x="-200%" y="-200%" width="400%" height="400%"><feGaussianBlur xmlns="http://www.w3.org/2000/svg" stdDeviation="2.146804531419514"/></filter></defs><g filter="url(#fY6LBIGMX7ihYvn49eM9rlq7WPZRiRvd)"><path d="M 55.227 31.087 L 149.156 31.087 C 156.189 31.087 161.899 36.797 161.899 43.83 L 161.899 112.17 C 161.899 119.203 156.189 124.913 149.156 124.913 L 55.227 124.913 C 48.194 124.913 42.484 119.203 42.484 112.17 L 42.484 43.83 C 42.484 36.797 48.194 31.087 55.227 31.087 Z" style="stroke:none;fill:#606060;stroke-miterlimit:10;"/><path d="M 55.227 31.087 L 149.156 31.087 C 156.189 31.087 161.899 36.797 161.899 43.83 L 161.899 112.17 C 161.899 119.203 156.189 124.913 149.156 124.913 L 55.227 124.913 C 48.194 124.913 42.484 119.203 42.484 112.17 L 42.484 43.83 C 42.484 36.797 48.194 31.087 55.227 31.087 Z" style="fill:none;stroke:#808080;stroke-width:0.9959677419354839;"/></g><defs><filter id="uGlrQnHywAjPNQjKJcPa0GvqWMAGn9gc" x="-200%" y="-200%" width="400%" height="400%"><feGaussianBlur xmlns="http://www.w3.org/2000/svg" stdDeviation="2.146804531419514"/></filter></defs><g filter="url(#uGlrQnHywAjPNQjKJcPa0GvqWMAGn9gc)"><path d="M 573.903 31.087 L 650.773 31.087 C 657.806 31.087 663.516 36.797 663.516 43.83 L 663.516 112.17 C 663.516 119.203 657.806 124.913 650.773 124.913 L 573.903 124.913 C 566.87 124.913 561.161 119.203 561.161 112.17 L 561.161 43.83 C 561.161 36.797 566.87 31.087 573.903 31.087 Z" style="stroke:none;fill:#606060;"/><path d="M 573.903 31.087 L 650.773 31.087 C 657.806 31.087 663.516 36.797 663.516 43.83 L 663.516 112.17 C 663.516 119.203 657.806 124.913 650.773 124.913 L 573.903 124.913 C 566.87 124.913 561.161 119.203 561.161 112.17 L 561.161 43.83 C 561.161 36.797 566.87 31.087 573.903 31.087 Z" style="fill:none;stroke:#808080;stroke-width:0.9959677419354839;"/></g><defs><filter id="V2VwTUWcYwp7Gc6V1Sfd5KG0MO37EY5Y" x="-200%" y="-200%" width="400%" height="400%"><feGaussianBlur xmlns="http://www.w3.org/2000/svg" stdDeviation="2.146804531419514"/></filter></defs><g filter="url(#V2VwTUWcYwp7Gc6V1Sfd5KG0MO37EY5Y)"><path d="M 222.872 31.087 L 500.187 31.087 C 507.22 31.087 512.93 36.797 512.93 43.83 L 512.93 112.17 C 512.93 119.203 507.22 124.913 500.187 124.913 L 222.872 124.913 C 215.839 124.913 210.13 119.203 210.13 112.17 L 210.13 43.83 C 210.13 36.797 215.839 31.087 222.872 31.087 Z" style="stroke:none;fill:#606060;"/><path d="M 222.872 31.087 L 500.187 31.087 C 507.22 31.087 512.93 36.797 512.93 43.83 L 512.93 112.17 C 512.93 119.203 507.22 124.913 500.187 124.913 L 222.872 124.913 C 215.839 124.913 210.13 119.203 210.13 112.17 L 210.13 43.83 C 210.13 36.797 215.839 31.087 222.872 31.087 Z" style="fill:none;stroke:#808080;stroke-width:0.9959677419354839;"/></g><path d="M 219.872 28.087 L 497.187 28.087 C 504.22 28.087 509.93 33.797 509.93 40.83 L 509.93 109.17 C 509.93 116.203 504.22 121.913 497.187 121.913 L 219.872 121.913 C 212.839 121.913 207.13 116.203 207.13 109.17 L 207.13 40.83 C 207.13 33.797 212.839 28.087 219.872 28.087 Z" style="stroke:none;fill:#000000;"/><path d="M 219.872 28.087 L 497.187 28.087 C 504.22 28.087 509.93 33.797 509.93 40.83 L 509.93 109.17 C 509.93 116.203 504.22 121.913 497.187 121.913 L 219.872 121.913 C 212.839 121.913 207.13 116.203 207.13 109.17 L 207.13 40.83 C 207.13 33.797 212.839 28.087 219.872 28.087 Z" style="fill:none;stroke:#808080;stroke-width:0.9959677419354839;"/></g><g id="DrawedInscr"><g id="sublayer3a"><path d=" M 249.777 73.109 L 232.718 91.46 L 241.248 91.46 L 241.248 105.224 L 258.307 105.224 L 258.307 91.46 L 266.837 91.46 L 249.777 73.109 Z " fill="none" vector-effect="non-scaling-stroke" stroke-width="1.992" stroke="rgb(255,252,252)" stroke-linejoin="miter" stroke-linecap="butt" stroke-miterlimit="4"/></g></g></g></g><g id="Group"><g id="GlyphKey"><path d="M 570.903 28.087 L 647.773 28.087 C 654.806 28.087 660.516 33.797 660.516 40.83 L 660.516 109.17 C 660.516 116.203 654.806 121.913 647.773 121.913 L 570.903 121.913 C 563.87 121.913 558.161 116.203 558.161 109.17 L 558.161 40.83 C 558.161 33.797 563.87 28.087 570.903 28.087 Z" style="stroke:none;fill:#000000;"/><path d="M 570.903 28.087 L 647.773 28.087 C 654.806 28.087 660.516 33.797 660.516 40.83 L 660.516 109.17 C 660.516 116.203 654.806 121.913 647.773 121.913 L 570.903 121.913 C 563.87 121.913 558.161 116.203 558.161 109.17 L 558.161 40.83 C 558.161 33.797 563.87 28.087 570.903 28.087 Z" style="fill:none;stroke:#808080;stroke-width:0.9959677419354839;"/></g><g id="T_stdletters"><g transform="matrix(2.417,0,0,2.417,602.005,36.087)"><text transform="matrix(1,0,0,1,0,22.446)" style="font-family:&quot;Open Sans&quot;;font-weight:400;font-size:21px;font-style:normal;fill:#FFFFFF;stroke:none;">I</text></g></g></g><g id="Group"><g id="OtherKey"><path d="M 52.227 28.087 L 146.156 28.087 C 153.189 28.087 158.899 33.797 158.899 40.83 L 158.899 109.17 C 158.899 116.203 153.189 121.913 146.156 121.913 L 52.227 121.913 C 45.194 121.913 39.484 116.203 39.484 109.17 L 39.484 40.83 C 39.484 33.797 45.194 28.087 52.227 28.087 Z" style="stroke:none;fill:#000000;"/><path d="M 52.227 28.087 L 146.156 28.087 C 153.189 28.087 158.899 33.797 158.899 40.83 L 158.899 109.17 C 158.899 116.203 153.189 121.913 146.156 121.913 L 52.227 121.913 C 45.194 121.913 39.484 116.203 39.484 109.17 L 39.484 40.83 C 39.484 33.797 45.194 28.087 52.227 28.087 Z" style="fill:none;stroke:#808080;stroke-width:0.9959677419354839;"/></g><g id="T_others"><g transform="matrix(2.132,0,0,2.132,52.535,65.935)"><text transform="matrix(1,0,0,1,0,17.102)" style="font-family:&quot;Open Sans&quot;;font-weight:400;font-size:16px;font-style:normal;fill:#FFFFFF;stroke:none;">Ctrl</text></g></g></g></g></g></svg>