<?xml version="1.0" encoding="UTF-8" standalone="no"?>
<!DOCTYPE svg PUBLIC "-//W3C//DTD SVG 1.1//EN" "http://www.w3.org/Graphics/SVG/1.1/DTD/svg11.dtd">
<svg version="1.1" xmlns="http://www.w3.org/2000/svg" xmlns:xlink="http://www.w3.org/1999/xlink" preserveAspectRatio="xMidYMid meet" viewBox="0 0 640 640" width="640" height="640"><defs><path d="M600 325C600 476.78 476.78 600 325 600C173.22 600 50 476.78 50 325C50 173.22 173.22 50 325 50C476.78 50 600 173.22 600 325Z" id="b5vkPta4fH"></path><path d="M170 360L368.86 360L368.86 400L170 400L170 360Z" id="a9ZfU6MCS"></path><path d="M550 325C550 449.18 449.18 550 325 550C200.82 550 100 449.18 100 325C100 200.82 200.82 100 325 100C449.18 100 550 200.82 550 325Z" id="a2k0tNAqbD"></path><path d="M350 90L200 360L260 360L340 220L488.24 490L455.16 520L390 400L130 400L300 90L350 90Z" id="g3si2Qovd"></path><path d="M357.5 329.37L375 360L340 360L305 360L322.5 329.37L340 298.75L357.5 329.37Z" id="cLU68O23k"></path></defs><g><g><g><g><filter id="shadow6821164" x="40" y="40" width="570" height="570" filterUnits="userSpaceOnUse" primitiveUnits="userSpaceOnUse"><feFlood></feFlood><feComposite in2="SourceAlpha" operator="in"></feComposite><feGaussianBlur stdDeviation="1"></feGaussianBlur><feOffset dx="0" dy="0" result="afterOffset"></feOffset><feFlood flood-color="#eae5e5" flood-opacity="0.5"></feFlood><feComposite in2="afterOffset" operator="in"></feComposite><feMorphology operator="dilate" radius="3"></feMorphology><feComposite in2="SourceAlpha" operator="out"></feComposite></filter><path d="M600 325C600 476.78 476.78 600 325 600C173.22 600 50 476.78 50 325C50 173.22 173.22 50 325 50C476.78 50 600 173.22 600 325Z" id="e7O1jif4g" fill="white" fill-opacity="1" filter="url(#shadow6821164)"></path></g><use xlink:href="#b5vkPta4fH" opacity="1" fill="#fefefe" fill-opacity="1"></use></g><g><g><filter id="shadow2147817" x="161" y="351" width="217.86" height="59" filterUnits="userSpaceOnUse" primitiveUnits="userSpaceOnUse"><feFlood></feFlood><feComposite in2="SourceAlpha" operator="in"></feComposite><feGaussianBlur stdDeviation="1"></feGaussianBlur><feOffset dx="1" dy="1" result="afterOffset"></feOffset><feFlood flood-color="#000000" flood-opacity="0.5"></feFlood><feComposite in2="afterOffset" operator="in"></feComposite><feMorphology operator="dilate" radius="1"></feMorphology><feComposite in2="SourceAlpha" operator="out"></feComposite></filter><path d="M170 360L368.86 360L368.86 400L170 400L170 360Z" id="b8oJTpC4n5" fill="white" fill-opacity="1" filter="url(#shadow2147817)"></path></g><use xlink:href="#a9ZfU6MCS" opacity="1" fill="#a76e6e" fill-opacity="1"></use></g><g><g><filter id="shadow13841371" x="91" y="91" width="469" height="469" filterUnits="userSpaceOnUse" primitiveUnits="userSpaceOnUse"><feFlood></feFlood><feComposite in2="SourceAlpha" operator="in"></feComposite><feGaussianBlur stdDeviation="1"></feGaussianBlur><feOffset dx="1" dy="1" result="afterOffset"></feOffset><feFlood flood-color="#000000" flood-opacity="0.5"></feFlood><feComposite in2="afterOffset" operator="in"></feComposite><feMorphology operator="dilate" radius="1"></feMorphology><feComposite in2="SourceAlpha" operator="out"></feComposite></filter><path d="M550 325C550 449.18 449.18 550 325 550C200.82 550 100 449.18 100 325C100 200.82 200.82 100 325 100C449.18 100 550 200.82 550 325Z" id="f2C9R6k0UD" fill="white" fill-opacity="1" filter="url(#shadow13841371)"></path></g><use xlink:href="#a2k0tNAqbD" opacity="1" fill="#1a1a1a" fill-opacity="1"></use></g><g><g><filter id="shadow5017821" x="120" y="80" width="378.24" height="450" filterUnits="userSpaceOnUse" primitiveUnits="userSpaceOnUse"><feFlood></feFlood><feComposite in2="SourceAlpha" operator="in"></feComposite><feGaussianBlur stdDeviation="1"></feGaussianBlur><feOffset dx="0" dy="0" result="afterOffset"></feOffset><feFlood flood-color="#0e0e0e" flood-opacity="0.5"></feFlood><feComposite in2="afterOffset" operator="in"></feComposite><feMorphology operator="dilate" radius="3"></feMorphology><feComposite in2="SourceAlpha" operator="out"></feComposite></filter><path d="M350 90L200 360L260 360L340 220L488.24 490L455.16 520L390 400L130 400L300 90L350 90Z" id="c7EVcOM2P" fill="white" fill-opacity="1" filter="url(#shadow5017821)"></path></g><use xlink:href="#g3si2Qovd" opacity="1" fill="#ffffff" fill-opacity="1"></use><g><use xlink:href="#g3si2Qovd" opacity="1" fill-opacity="0" stroke="#000000" stroke-width="1" stroke-opacity="1"></use></g><g><filter id="shadow8004359" x="121" y="81" width="377.24" height="449" filterUnits="userSpaceOnUse" primitiveUnits="userSpaceOnUse"><feFlood></feFlood><feComposite in2="SourceAlpha" operator="out"></feComposite><feGaussianBlur stdDeviation="1"></feGaussianBlur><feOffset dx="1" dy="1" result="afterOffset"></feOffset><feFlood flood-color="#ffffff" flood-opacity="0.8"></feFlood><feComposite in2="afterOffset" operator="in"></feComposite><feMorphology operator="dilate" radius="1"></feMorphology><feComposite in2="SourceAlpha" operator="in"></feComposite></filter><path d="M350 90L200 360L260 360L340 220L488.24 490L455.16 520L390 400L130 400L300 90L350 90Z" id="dM95bl79i" fill="white" fill-opacity="1" filter="url(#shadow8004359)"></path></g></g><g><g><filter id="shadow12438847" x="296" y="289.75" width="89" height="80.25" filterUnits="userSpaceOnUse" primitiveUnits="userSpaceOnUse"><feFlood></feFlood><feComposite in2="SourceAlpha" operator="in"></feComposite><feGaussianBlur stdDeviation="1"></feGaussianBlur><feOffset dx="1" dy="1" result="afterOffset"></feOffset><feFlood flood-color="#000000" flood-opacity="0.5"></feFlood><feComposite in2="afterOffset" operator="in"></feComposite><feMorphology operator="dilate" radius="1"></feMorphology><feComposite in2="SourceAlpha" operator="out"></feComposite></filter><path d="M357.5 329.37L375 360L340 360L305 360L322.5 329.37L340 298.75L357.5 329.37Z" id="frE52apxo" fill="white" fill-opacity="1" filter="url(#shadow12438847)"></path></g><use xlink:href="#cLU68O23k" opacity="1" fill="#181818" fill-opacity="1"></use></g></g></g></svg>