<?xml version="1.0" encoding="UTF-8" standalone="no"?>
<!DOCTYPE svg PUBLIC "-//W3C//DTD SVG 1.1//EN" "http://www.w3.org/Graphics/SVG/1.1/DTD/svg11.dtd">
<svg version="1.1" xmlns="http://www.w3.org/2000/svg" xmlns:xlink="http://www.w3.org/1999/xlink" preserveAspectRatio="xMidYMid meet" viewBox="0 0 640 640" width="640" height="640"><defs><path d="M448.19 64.11L449.38 64.24L450.55 64.42L451.7 64.66L452.85 64.94L453.97 65.28L455.07 65.65L456.16 66.08L457.23 66.55L458.27 67.07L459.3 67.62L460.3 68.22L461.27 68.86L462.23 69.54L463.15 70.26L464.05 71.02L464.93 71.81L465.77 72.64L466.58 73.5L467.37 74.4L468.12 75.33L468.84 76.29L469.53 77.28L470.18 78.3L470.8 79.35L471.38 80.43L471.93 81.53L472.43 82.66L472.9 83.81L473.33 84.98L473.71 86.18L474.06 87.4L474.36 88.63L474.62 89.89L474.83 91.16L475 92.45L475.12 93.76L475.19 95.08L475.22 96.41L475.22 543.59L475.19 544.92L475.12 546.24L475 547.55L474.83 548.84L474.62 550.11L474.36 551.37L474.06 552.6L473.71 553.82L473.33 555.02L472.9 556.19L472.43 557.34L471.93 558.47L471.38 559.57L470.8 560.65L470.18 561.7L469.53 562.72L468.84 563.71L468.12 564.67L467.37 565.6L466.58 566.5L465.77 567.36L464.93 568.19L464.05 568.98L463.15 569.74L462.23 570.46L461.27 571.14L460.3 571.78L459.3 572.38L458.27 572.93L457.23 573.45L456.16 573.92L455.07 574.35L453.97 574.72L452.85 575.06L451.7 575.34L450.55 575.58L449.38 575.76L448.19 575.89L446.99 575.97L445.78 576L205.16 576L203.94 575.97L202.75 575.89L201.56 575.76L200.39 575.58L199.23 575.34L198.09 575.06L196.97 574.72L195.86 574.35L194.78 573.92L193.71 573.45L192.66 572.93L191.64 572.38L190.64 571.78L189.66 571.14L188.71 570.46L187.78 569.74L186.88 568.98L186.01 568.19L185.17 567.36L184.35 566.5L183.57 565.6L182.81 564.67L182.09 563.71L181.41 562.72L180.75 561.7L180.14 560.65L179.55 559.57L179.01 558.47L178.5 557.34L178.04 556.19L177.61 555.02L177.22 553.82L176.88 552.6L176.58 551.37L176.32 550.11L176.11 548.84L175.94 547.55L175.82 546.24L175.74 544.92L175.72 543.59L175.72 96.41L175.74 95.08L175.82 93.76L175.94 92.45L176.11 91.16L176.32 89.89L176.58 88.63L176.88 87.4L177.22 86.18L177.61 84.98L178.04 83.81L178.5 82.66L179.01 81.53L179.55 80.43L180.14 79.35L180.75 78.3L181.41 77.28L182.09 76.29L182.81 75.33L183.57 74.4L184.35 73.5L185.17 72.64L186.01 71.81L186.88 71.02L187.78 70.26L188.71 69.54L189.66 68.86L190.64 68.22L191.64 67.62L192.66 67.07L193.71 66.55L194.77 66.08L195.86 65.65L196.97 65.28L198.09 64.94L199.23 64.66L200.39 64.42L201.56 64.24L202.74 64.11L203.94 64.03L205.16 64L445.78 64L446.99 64.03L448.19 64.11ZM190.47 543.58L190.48 544.25L190.52 544.91L190.58 545.56L190.66 546.2L190.77 546.84L190.9 547.47L191.05 548.08L191.22 548.69L191.41 549.29L191.63 549.87L191.86 550.45L192.11 551.01L192.38 551.56L192.67 552.1L192.98 552.62L193.31 553.13L193.65 553.62L194.01 554.1L194.38 554.57L194.78 555.01L195.18 555.45L195.6 555.86L196.04 556.25L196.49 556.63L196.95 556.99L197.43 557.33L197.91 557.65L198.41 557.95L198.92 558.23L199.44 558.48L199.98 558.72L200.52 558.93L201.07 559.12L201.63 559.29L202.2 559.43L202.78 559.54L203.36 559.64L203.95 559.7L204.55 559.74L205.16 559.76L445.78 559.76L446.38 559.74L446.98 559.7L447.57 559.64L448.16 559.54L448.74 559.43L449.3 559.29L449.86 559.12L450.42 558.93L450.96 558.72L451.49 558.48L452.01 558.23L452.52 557.95L453.02 557.65L453.51 557.33L453.98 556.99L454.45 556.63L454.9 556.25L455.33 555.86L455.75 555.45L456.16 555.01L456.55 554.57L456.93 554.1L457.28 553.62L457.63 553.13L457.95 552.62L458.26 552.1L458.55 551.56L458.82 551.01L459.08 550.45L459.31 549.87L459.52 549.29L459.71 548.69L459.89 548.08L460.04 547.47L460.17 546.84L460.27 546.2L460.36 545.56L460.42 544.91L460.45 544.25L460.46 543.58L460.46 494.9L190.47 494.9L190.47 543.58ZM190.47 484.08L460.47 484.08L460.47 145.47L190.47 145.47L190.47 484.08ZM204.55 80.26L203.95 80.3L203.36 80.36L202.78 80.45L202.2 80.57L201.63 80.71L201.07 80.88L200.52 81.07L199.98 81.28L199.44 81.52L198.92 81.77L198.41 82.05L197.91 82.35L197.43 82.67L196.95 83.01L196.49 83.37L196.04 83.74L195.6 84.14L195.18 84.55L194.78 84.98L194.39 85.43L194.01 85.9L193.65 86.38L193.31 86.87L192.98 87.38L192.67 87.9L192.38 88.44L192.11 88.99L191.86 89.55L191.63 90.13L191.41 90.71L191.22 91.31L191.05 91.92L190.9 92.53L190.77 93.16L190.66 93.79L190.58 94.44L190.52 95.09L190.48 95.75L190.47 96.41L190.47 134.64L460.47 134.64L460.47 96.41L460.45 95.75L460.42 95.09L460.36 94.44L460.27 93.79L460.17 93.16L460.04 92.53L459.89 91.92L459.72 91.31L459.52 90.71L459.31 90.13L459.08 89.55L458.82 88.99L458.55 88.44L458.26 87.9L457.95 87.38L457.63 86.87L457.29 86.38L456.93 85.9L456.55 85.43L456.16 84.98L455.75 84.55L455.33 84.14L454.9 83.74L454.45 83.37L453.98 83.01L453.51 82.67L453.02 82.35L452.52 82.05L452.01 81.77L451.49 81.52L450.96 81.28L450.42 81.07L449.86 80.88L449.3 80.71L448.74 80.57L448.16 80.45L447.57 80.36L446.98 80.3L446.38 80.26L445.78 80.24L205.16 80.24L204.55 80.26Z" id="aieJFiVlN"></path><path d="M328.01 502.23L329.26 502.41L330.48 502.66L331.68 502.98L332.86 503.36L334.02 503.8L335.14 504.31L336.24 504.88L337.3 505.5L338.34 506.18L339.34 506.91L340.3 507.7L341.23 508.54L342.11 509.42L342.96 510.36L343.76 511.33L344.52 512.35L345.24 513.41L345.9 514.51L346.52 515.65L347.09 516.83L347.6 518.03L348.06 519.27L348.47 520.54L348.81 521.84L349.1 523.16L349.33 524.51L349.49 525.88L349.59 527.27L349.62 528.68L349.59 530.09L349.49 531.49L349.33 532.86L349.1 534.2L348.81 535.53L348.47 536.83L348.06 538.1L347.6 539.33L347.09 540.54L346.52 541.72L345.9 542.85L345.24 543.95L344.52 545.01L343.76 546.03L342.96 547.01L342.11 547.94L341.22 548.83L340.3 549.67L339.33 550.45L338.34 551.19L337.3 551.87L336.24 552.49L335.14 553.06L334.01 553.56L332.86 554.01L331.68 554.39L330.48 554.71L329.26 554.96L328.01 555.14L326.75 555.25L325.47 555.28L324.19 555.25L322.92 555.14L321.68 554.96L320.45 554.71L319.25 554.39L318.07 554.01L316.92 553.56L315.8 553.06L314.7 552.49L313.63 551.87L312.6 551.19L311.6 550.45L310.64 549.67L309.71 548.83L308.82 547.94L307.98 547.01L307.17 546.04L306.41 545.02L305.7 543.95L305.03 542.85L304.41 541.72L303.85 540.54L303.33 539.33L302.87 538.1L302.47 536.83L302.12 535.53L301.84 534.21L301.61 532.86L301.45 531.49L301.35 530.09L301.31 528.68L301.35 527.27L301.45 525.88L301.61 524.51L301.84 523.16L302.12 521.84L302.47 520.54L302.87 519.27L303.33 518.03L303.85 516.83L304.41 515.65L305.03 514.51L305.7 513.41L306.41 512.35L307.17 511.33L307.98 510.35L308.82 509.42L309.71 508.54L310.64 507.7L311.6 506.91L312.6 506.18L313.63 505.5L314.7 504.88L315.8 504.31L316.92 503.8L318.07 503.36L319.25 502.98L320.45 502.66L321.68 502.41L322.92 502.23L324.19 502.12L325.47 502.08L326.75 502.12L328.01 502.23ZM322.9 513.17L321.66 513.48L320.48 513.9L319.33 514.43L318.24 515.07L317.21 515.8L316.25 516.63L315.35 517.54L314.52 518.53L313.77 519.59L313.1 520.73L312.53 521.93L312.04 523.19L311.66 524.5L311.38 525.85L311.2 527.25L311.15 528.68L311.2 530.12L311.38 531.51L311.66 532.87L312.04 534.18L312.53 535.44L313.1 536.64L313.77 537.77L314.52 538.84L315.35 539.83L316.25 540.74L317.21 541.57L318.24 542.3L319.33 542.93L320.48 543.47L321.66 543.89L322.9 544.2L324.17 544.39L325.47 544.46L326.77 544.39L328.04 544.2L329.27 543.89L330.46 543.47L331.6 542.93L332.69 542.3L333.72 541.57L334.69 540.74L335.59 539.83L336.42 538.84L337.17 537.77L337.83 536.64L338.41 535.44L338.89 534.18L339.28 532.87L339.56 531.51L339.73 530.12L339.79 528.68L339.73 527.25L339.56 525.85L339.28 524.5L338.89 523.19L338.41 521.93L337.83 520.73L337.17 519.59L336.42 518.53L335.59 517.54L334.69 516.63L333.72 515.8L332.69 515.07L331.6 514.43L330.46 513.9L329.27 513.48L328.04 513.17L326.77 512.98L325.47 512.91L324.17 512.98L322.9 513.17Z" id="b2FWQA5NC9"></path><path d="M358.9 115.59C361.62 115.59 363.82 113.17 363.82 110.18C363.82 107.19 361.62 104.76 358.9 104.76C352.22 104.76 298.72 104.76 292.03 104.76C289.32 104.76 287.12 107.19 287.12 110.18C287.12 113.17 289.32 115.59 292.03 115.59C305.41 115.59 352.22 115.59 358.9 115.59Z" id="i2r8lZJBnI"></path><path d="M277.81 114.01C278.72 112.99 279.25 111.61 279.25 110.18C279.25 108.75 278.72 107.36 277.81 106.35C276.89 105.34 275.62 104.76 274.33 104.76C273.04 104.76 271.78 105.34 270.85 106.35C269.94 107.35 269.42 108.75 269.42 110.18C269.42 111.61 269.94 112.99 270.85 114.01C271.77 115.02 273.04 115.59 274.33 115.59C275.62 115.59 276.89 115.02 277.81 114.01Z" id="bXtjosOmq"></path></defs><g><g><g><use xlink:href="#aieJFiVlN" opacity="1" fill="#ffffff" fill-opacity="1"></use><g><use xlink:href="#aieJFiVlN" opacity="1" fill-opacity="0" stroke="#000000" stroke-width="1" stroke-opacity="0"></use></g></g><g><use xlink:href="#b2FWQA5NC9" opacity="1" fill="#ffffff" fill-opacity="1"></use><g><use xlink:href="#b2FWQA5NC9" opacity="1" fill-opacity="0" stroke="#000000" stroke-width="1" stroke-opacity="0"></use></g></g><g><use xlink:href="#i2r8lZJBnI" opacity="1" fill="#ffffff" fill-opacity="1"></use><g><use xlink:href="#i2r8lZJBnI" opacity="1" fill-opacity="0" stroke="#000000" stroke-width="1" stroke-opacity="0"></use></g></g><g><use xlink:href="#bXtjosOmq" opacity="1" fill="#ffffff" fill-opacity="1"></use><g><use xlink:href="#bXtjosOmq" opacity="1" fill-opacity="0" stroke="#000000" stroke-width="1" stroke-opacity="0"></use></g></g></g></g></svg>